<svg xmlns="http://www.w3.org/2000/svg" width="255.397" height="273.022" viewBox="0 0 255.397 273.022">
  <g id="Group_1957" data-name="Group 1957" transform="translate(-1641 -1215)">
    <g id="Group_1946" data-name="Group 1946" transform="translate(-1722.885 438.921)">
      <path id="Path_4970" data-name="Path 4970" d="M3563.509,1030.182c-14.385-.99-25.374-8.8-37.058-15.02.908-1.775,2.011.306,2.938-1.055-1.966-3.166-6.472-2.8-8.751-5.63a.5.5,0,0,0-.454-.126c-9.492,5.289-15.966-3.906-24.569-4.684a30.49,30.49,0,0,0,2.583,2.966,44.246,44.246,0,0,0,3.589,2.668,102.539,102.539,0,0,0,13.759,8.956c1.793.918,4.576.81,4.412,3.9-.165,3.118-1.226,5.96-3.873,7.7-2.17,1.429-4.522,2.964-7.3,1.692-1,2.421,3.885.264,1.993,3.1-1.193,1.791-2.705,2.328-4.6.876-1.945-1.488-4.563-2.541-4.6-5.443-.073-5.1-6.5-6.976-5.961-12.6-1.259,1.525-1.611,4.082-4.446,2.164-17.813-12.052-38.445-19.039-56.232-31.144-3.967-2.7-7.594-5.9-11.561-8.6-4.342-2.955-2.429-6.531-.787-9.541,1.26-2.31,1-3.492-.734-5.042a80.9,80.9,0,0,0-21.306-14.2c-4.53-2-8.663-4.9-12.98-7.379-1.253-.721-1.6-2.077-2.31-3.184a4.49,4.49,0,0,1,.236-5.167c1.3-1.9,3.08-.385,4.467.147,12.369,4.748,23.059,12.4,33.879,19.814,10.679,7.316,21.338,14.542,33.347,19.733,7.131,3.082,13.3,8.373,20.424,11.488,4.982,2.179,8.68,6.171,14.35,7.572,9.289,2.3,18.093,6.507,27.21,9.588,1.49.5,4.166,2.509,5.234-.224.9-2.291-1.806-4.533-3.231-4.954-8.158-2.411-13.536-8.611-19.679-13.7-7.691-6.371-16.09-11.073-25.969-12.946-.642-.122-1.546-.236-1.828-.676-4.534-7.081-12.634-8.961-19.25-12.782q-23.729-13.7-47.158-27.9c-1.7-1.028-3.317-2.9-4.536.487-.248.691-1.038.7-1.716.41a5.876,5.876,0,0,1-.906-.42c-6.5-4.3-13.056-8.532-19.451-12.988-1.068-.744-3.688-2.211-1.666-3.744,1.927-1.46,3.107-5.559,6.829-3.347,3.994,2.374,7.84,5,11.82,7.4q39.24,23.645,78.53,47.2c5.684,3.4,12.015,5.828,17.326,9.7s10.426,7.624,16.856,9.586c4.1,1.251,7.394,4.357,10.906,6.879,3.408,2.447,6.1,5.276,11.127,6.046,5.346.819,10.192,5.246,15.127,8.307s9.668,6.425,14.549,9.565c3.368,2.167,6.232,4.966,10.981,4.732,3.237-.159,5.858,2.922,8.431,4.972,4.07,3.241,8.348,5.8,14.466,5.959-2.214,2.032-3.781,3.149-6.22,2.113-2.9-1.232-5.876-2.284-8.8-3.459-1.387-.557-2.807-1.873-4.083-1.727-8.534.982-14.162-4.485-19.964-9.068-8.612-6.8-18.722-10.741-28.241-15.813-.747-.4-1.891-1.378-2.47.032a1.771,1.771,0,0,0,1.49,2.609c5.22.542,5.795,3.781,5.258,8.154-.321,2.612,5.849,6.64,9.956,6.854,2.363.123,4.681-.846,6.241,2.653.779,1.748,3.9,3.716,7.333,2.544C3559.289,1025.232,3562.012,1026.225,3563.509,1030.182Z" fill="#f0f1f7"/>
      <path id="Path_4971" data-name="Path 4971" d="M3417,861c.965-2.177,2.211-2.643,4.453-1.342a71.293,71.293,0,0,0,10.707,4.94c-2.626-3.968-7.885-4.613-10.482-8.755,4.693-5.15,7.508,1.679,11.849,1.816-2.289-4.23-8.534-4.727-9.363-10.771,5.61,2.714,9.224,6.824,13.387,10.183,2.709,2.186,5.012,5.389,8.088,6.5,7.059,2.556,10.3,8.213,13.5,14.122,1.1,2.027,3.61,1.376,5.182,3.127l-5.656.461c10.041,6.107,19.123,11.539,28.11,17.123,9.343,5.806,18.913,11.237,29.429,14.5,3.839,1.192,3.842,5.071,6.31,6.888,2.415-1.26-.4-2.36.756-3.97,4.185,2.478,9.82,2.827,12.462,8.943-3.173-.682-5.8-.856-7.995-2.55-.5-.386-1.561-.928-1.676-.8-3.581,4.087-5.741-.189-8.132-1.532-6.148-3.453-13.189-4.721-19.325-7.983-6.284-3.34-14.087-4.266-18.334-11.076-1.24-1.989-3.7-2.083-5.705-2.793a24.15,24.15,0,0,1-8.7-5.658c-1.887-1.82-3.842-2.61-6.447-.168l9,6.991c-8.486-2.636-16.612-5.8-23.354-11.647-.88-.762-1.651-1.648-2.5-2.446-1.064-1-2.412-1.67-3.493-.393-1.4,1.655.523,2.272,1.433,2.983,6.072,4.746,13.406,7.315,19.856,11.428,3.779,2.41,7.738,4.534,11,7.684a3.985,3.985,0,0,0,2.072,1.306c9.008.55,15.122,7.037,22.529,10.855,2.151,1.11,3.627,2.8,6.98,2.11,2.492-.515,5.846,2.571,8.661,4.3,11.334,6.975,22.87,13.369,35.443,18.086,4.965,1.862,8.889,6.765,14.286,8.925a68.3,68.3,0,0,1-17.709-5.553c-2.334-1.136-4.494-2.992-7.434-1.913-.411.151-1.329.026-1.412-.2-2.741-7.358-11.373-3.426-15.546-8.118-.921-1.036-3.081-.415-4.177-.532-4.051-.434-6.788-2.513-9.519-4.837-3.128-2.663-8.167-1.763-10.532-5.8a2.361,2.361,0,0,0-1.8.418c-3.555,3.892-5.376.362-7.527-1.694-6.743-6.446-8.586-7.657-14.457-9.335.837,2.766,3.729,1.991,5.175,3.377.6.578,1.469,1.055,1.049,2-.4.89-1.363.823-2.179.671-2.753-.511-4.473-2.678-6.728-3.984,5.481,7.8,15.415,8.589,22.36,13.888,7.2,5.495,15.028,9.723,22.826,14.135,7.874,4.456,16.259,8.036,23.891,13.349a3.177,3.177,0,0,1-4.066-.054c-6.545-4.792-14.678-6.789-20.977-12.038a28.167,28.167,0,0,0-5.62-3.187c-23.389-11.608-46.858-23.179-67.922-38.719-5.794-4.275-13.135-3.7-18.372-8.375-1.592-1.423-3.8-2.212-5.235-3.748-7.417-7.924-18.065-10.454-26.753-16.237a34.428,34.428,0,0,1-4.829-3.481c-.94-.89-2.4-2.208-3.311-2-7.309,1.683-9.987-4.848-14.4-8.062-2.064-1.5-3.364-4.386-.911-7,2.481-2.647,4.552-.613,6.482.891,2.947,2.3,5.592,5.47,9.293.862,1.109-1.381,2.819-.382,4.049.532a14.351,14.351,0,0,0,5.693,2.78c-.413-2.264-1.974-3.037-3.522-3.819-2.527-1.275-5.117-2.442-7.568-3.849s-2.6-7.32-.371-9c1.417-1.065,2.111.276,3,.827,8.741,5.436,17.431,10.953,26.2,16.343a38.888,38.888,0,0,0,12.885,5c-.442-2.928-3.675-2.739-4.355-4.944Z" fill="#f0f1f7"/>
      <path id="Path_4972" data-name="Path 4972" d="M3465,807c-.549-3.96-4.027-5.157-6.846-5.666-9.124-1.645-12.735-9.23-18.307-15.561,6.138,2.392,6.411-3.01,7.853-5.607,2.595-4.673,4.861-5,9.678-2.686,11.061,5.319,22.532,9.8,33.92,14.417,5.135,2.082,9.669,5.123,14.4,7.879,1.986,1.156,3.563,4.592,6.731,1.84.14-.122.951.276,1.239.612,7.422,8.67,18.385,10.973,28.037,15.627a3.546,3.546,0,0,0,2.47.432c-6.188-5.66-14.623-7.076-21.584-12.387.042-.479,1.892.571,2.746-.531-1.013-1.982-3.992-2.248-4.59-4.749,1.061-1.245,2.215-.317,2.929.3,6.946,5.985,16.748,6.173,23.847,11.825a3.4,3.4,0,0,0,3.784.268,7.947,7.947,0,0,1,7.672.056c6.487,3.685,14.419,3.6,20.536,8.193,5.636,4.232,6.195,10.607,1.476,15.369a4.889,4.889,0,0,1-5.324,1.33c-20.556-5.218-40.32-12.539-58.561-23.415a107,107,0,0,0-27.887-11.4c-10.371-2.739-19.786-7.773-29.209-12.742-.9-.474-1.514-2.364-2.8.143-1.179,2.306.472,2.2,1.417,2.715,25.015,13.556,50.548,26.081,76.352,38.049,1.4.651,4.523,4.268,5.574-1,.265-1.326,1.557-.565,2.4.04,9.163,6.541,20.063,8.533,30.51,11.765,3.785,1.171,7.346,3.067,11.008,4.634,2.5,1.07,2.952,2.839,1.988,5.284-2.84,7.2-6.634,8.418-13.638,5.484-9.929-4.16-20.068-7.842-30.22-11.437a170.83,170.83,0,0,1-19.34-7.97,7.842,7.842,0,0,0-4.284-1.124c-3.531.523-5.836-2.127-8.7-3.344-11.15-6.26-22.72-11.733-33.8-18.113-1.853-1.067-5.129-1.244-4.056-4.988.3-1.034-1.156-.876-1.824-1.181-1.658-.757-3.539-.909-5.147-1.831C3465.306,807.361,3465.153,807.181,3465,807Z" fill="#f0f1f7"/>
      <path id="Path_4973" data-name="Path 4973" d="M3479,940a6.086,6.086,0,0,1,6.852,1.229c1.478,1.319,3.457,2.149,4.724,3.619,3.663,4.247,9.428,3.61,13.748,6.269,3.817,2.35,7.857,4.406,10.918,7.75.666.726,3.727,1.335.927,3.574-.511.408,1.982,1.648,3.322,1.5,7.908-.853,14.7,2.928,20.421,7,8.854,6.3,18.841,9.643,28.456,14.029a77.6,77.6,0,0,0,9.542,4.006c-3.517-4.373-5.7-9.635-10.616-13.173,3.69-.179,9.117,2.587,10.054,5.663a4.654,4.654,0,0,0,2.75,3.059c2.909,1.584,7.47,1.762,5.416,7.349-.466,1.267,2.121,2.279,3.5,3.078,6.543,3.782,13.973,5.258,20.959,7.893a53.1,53.1,0,0,1,5.165,1.807c1.543.776,4.161.911,4.142,3.016-.022,2.447-2.042,4.179-4.237,5.143-5.839,2.565-11.124.017-16.118-2.488-4.175-2.093-8.384-3.939-12.668-5.746-5.547-2.341-8.251-.205-10.537,3.7-.948,1.619-1.392,1.851-2.82,1.159-4.912-2.379-10.33-3.64-15.544-7.02,3.269-.373,3.8-1.341,2.066-3.915-1.893-2.8-4.531-4.354-7.252-5.874-5.918-3.3-12.642-5.324-17.049-10.979-.291-.375-1.036-.924-1.132-.847-5.886,4.732-8.5-3.176-13.514-3.3,5.548,8.311,16.677,7.074,22.909,13.81-1.2,1.1-2.285.671-3.288.112-1.947-1.083-3.184-3.363-6.044-.221-1.322,1.454-5.449-.86-7.7-3.505,2.687-.926,3.774,2.066,6.586,1.816a6.106,6.106,0,0,0-5.884-4.4c-5.828-.1-10.695-3.423-16.235-4.436-.67-.123-5.353.013-1.643-3.238.465-.407-.469-1.057-1.028-1.355-5.682-3.031-11.369-6.051-17.12-9.108-1.377,2.241,1.708,2.05,1.009,3.811-4.169-.164-5.271-3.21-5.945-6.811,10.793.695,19.614,5.681,27.724,12.314.959.784,1.5,2.5,3.135,1.941a2.737,2.737,0,0,0,1.568-1.777c.286-1.825-1.576-1.831-2.595-2.484-7.238-4.633-15.144-7.962-22.86-11.664-2.431-1.166-3.981-3.346-5.6-5.382-1.688-2.116-2.848-5.224-6.416-2.2-.574.486-2.117-.174-3.353-.321.439,3.6,3.433,4.783,6.426,7.235a5.166,5.166,0,0,0-5.581,2.3c-.124-3.428-.073-5.656-4.286-4.525-3.135.841-5.226-2.57-7.41-4.351-4.062-3.313-8.135-6.109-13.4-7.231a16.279,16.279,0,0,1-7.791-4.7c-6.07-6.811-14.753-8.89-21.891-13.629-3.46-2.3-6.628-6.219-10.113-6.918-9.056-1.818-14.754-9.574-23.4-11.7-2.519-.619-6.226-1.613-4.714-4.873,1.184-2.553,4.666-2.843,7.86-1.362,14.537,6.74,27.847,15.51,41.141,24.339,6.863,4.558,13.475,9.53,21.285,12.825-8.534-7.621-15.408-16.94-26.624-23.056,3.5-.958,5.282-.062,6.651.865,5.392,3.649,11.254,5.084,17.709,5.334,2.084.08,6.425.7,3.463,5.162-.62.935-.78,2.064.436,2.51,1.64.6,3.079,2.865,5.271,1.03-.326-2-2.729.022-2.961-1.793,3.543-2.533,4.124-2.427,5.653,1.381A2.848,2.848,0,0,0,3467,935c.784,1.275,1.273,2.7,2.007,4,4.85,2.308,8.761,6.392,14.747,7.811-.515-3.371-3.743-4.372-4.749-6.812Z" fill="#f0f1f7"/>
      <path id="Path_4974" data-name="Path 4974" d="M3511.013,833l7.974,3.992a13.041,13.041,0,0,0,7.732,5.836c7.42,2.244,13.709,6.728,20.148,10.791,5.231,3.3,10.446,6.487,16.385,8.289a7.607,7.607,0,0,1,4.435,3.822c-2.274,1.649-4-2.295-6.312.171,5.826,4.56,11.751,8.574,19.607,8.047,2.559-.171,4.761-.174,4.441,3.289-.133,1.432.684,1.845,1.754,1.706,2.3-.3,3.57,1.042,5.074,2.452.966.906,2.724,2.653,3.873-.165a1.554,1.554,0,0,1,1.994-1.009c6.509,1.692,12.985,3.474,18.977,7.816-2.46.505-4.625-2.312-6.279.546,1.888,1.112,4.519,1.222,5.638,4.263-6.505-.212-11.927-2.964-17.4-5.368-6.085-2.675-12.048-5.627-18.047-8.493a7.725,7.725,0,0,0-4.318-.974c-3.372.42-4.995-1.887-7.427-3.677-4.9-3.609-9.869-7.585-16.212-10.264.142,1.333.095,1.726.2,1.775,1.487.665,3.284.848,4.1,2.524.11.225-.363,1.025-.7,1.125-2.292.688-3.782-1.424-4.356-2.558-3.032-5.988-8.795-7.642-14.252-9.947-2.541-1.074-2.484-1.209-1.051-2.993a2.225,2.225,0,0,0,1.294.566,6,6,0,0,1,1.2.455c-.707-.651-1.8-.358-2.5-1.019-.814-.538-2.011-1.732-2.384-1.514-4.756,2.77-6.139-1.174-8.346-3.845-1.248-1.511-2.523-4.559-5.106-1.039-.656.894-1.851.016-2.736-.4-4.276-2.034-8.965-3.464-11.558-7.961-.213-.37-.868-.907-1.031-.821-6.127,3.224-9.492-2.955-14.247-4.33-4.37-1.264-8.331-3.943-12.415-5.97-.812,1-.161,1.629.259,1.842,7.326,3.718,11.867,10.948,19.411,14.623,16.142,7.862,31.932,16.446,47.849,24.768,6.171,3.227,12.295,6.545,18.3,10.158-5.883-.622-10.811-3.892-16.049-6.154-6.868-2.966-13.377-6.755-20.2-9.85-1.54-.7-3.9-4.555-5.67.091a2.9,2.9,0,0,1-1.714-.484c-3.725-4.748-10.417-2.159-14.645-6-1.225-1.114-2.862-1.389-2.461-3.531.728-3.892-1.991-3.949-4.1-2.868-2.22,1.136-3.335.083-4.88-.861-9.914-6.055-19.4-13.057-29.9-17.843-14.407-6.57-27.232-15.562-40.6-23.728a137.942,137.942,0,0,1-24.539-19.4c-1.846-1.809-1.227-2.923-.2-4.5,1.595-2.462,2.445-.112,3.388.572,8.47,6.147,18.6,9.852,26.286,17.03,9.5,8.871,22.108,12.619,32.149,20.495.8.625,1.815,2.12,2.831.546.728-1.127-.276-2.274-1.225-2.964-2.822-2.05-5.669-4.087-9.088-5.084a12.623,12.623,0,0,1-4.7-2.723c-1.7-1.453-.829-3.023-.571-4.583.308-1.858,1.831-1.719,3.125-1.636,4.257.271,8.507.641,12.76.973l0,0c.845,1.144,3.376-.347,3.342,2.067-.018,1.274-1.1,1.389-2.244,1.439C3481.5,817.313,3495.233,827.2,3511.013,833Z" fill="#f0f1f7"/>
      <path id="Path_4975" data-name="Path 4975" d="M3452.3,851.5c1.015-1.991,1.534-5.225,3.808-1.313,1.668,2.872,3.1,5.461,7.623,4.152,2.96-.857,4.209,2.992,5.954,5.264.582-1.665-.122-2.989-4.247-8.427a9.135,9.135,0,0,1,8.417,5.528c2.644,5.765,7.347,8.7,12.442,11.408,11.164,5.941,22.828,10.914,33.732,17.368,1.1.649,2.19,1.41,3.7,1.208,1.432-.191,2.694-.472,1.927,2.2-.5,1.736,2.507,2.26,4.086,2.844a304.991,304.991,0,0,1,36.367,16.34,83.3,83.3,0,0,1,16.327,10.978c-7.23-.446-12.977-.608-18.368-3.961-10.176-6.329-20.946-11.6-31.679-16.912-2.011-1-4.307-1.415-5.129-4.143-.427-1.418-1.9-2.043-3.724-1.417-2.789.955-5.6.384-8.277-.69-1.659-.667-4.794-.471-2.6-3.852.153-.236-.21-.965-.509-1.312-1.427-1.652-2.991-3.678-5.421-2.44-3.2,1.631,2.517,2.357.283,4.331-1.816-.906-3.82-.872-4.966-4.022-1.069-2.936-5.2-3.906-8.26-5.123-2.2-.875-3.986-2.422-6.1-3.275-2.221-.9-2.491-6.838-6.68-2.691-.962-3.31-4.71-2.643-6.611-4.636a23.647,23.647,0,0,0-11.922-6.856c-.323-.076-.727,0-.977-.164-7.5-5.011-16.2-7.822-23.495-13.332-7.542-5.7-16.833-9.5-23.234-16.174-7.165-7.466-16.555-10.261-24.592-15.674a47.854,47.854,0,0,1-7.434-6.579c-2.647-2.711-1.057-5.374.627-7.6,1.837-2.424,3.735-.031,5.127.849,9.677,6.124,19.013,12.758,28.082,19.753a74.7,74.7,0,0,0,13.5,8.432c1.328.632,3.432.989,3.6,2.418.665,5.492,4.949,5.946,8.919,7.051C3447.774,842.476,3450.041,846.809,3452.3,851.5Z" fill="#f0f1f7"/>
      <path id="Path_4976" data-name="Path 4976" d="M3489,863c-4.466,1.334-7.01-2.228-9.664-4.405-5.866-4.809-10.964-10.119-18.973-12.138-3.681-.927-6.21-6.278-10.685-7.563-8.668-2.488-15.453-8.237-22.755-13.033-4.265-2.8-7.974-6.418-8.407-12.449,5.353,5.214,13.09,5.255,18.915,9.445a50.859,50.859,0,0,0,8.346,4.456c1.984.923,4.833.749,4.329,4.2-.039.263.256.825.406.829,8.647.214,13.142,7.515,19.14,11.888,3.549,2.588,7.622,2.045,11.051,4.589,4.84,3.59,9.888,6.991,14.816,10.509,7.921,5.653,16.951,9.188,25.5,13.639,6.049,3.151,12.22,6.058,17.267,10.79.75.7,1.736,1.569,2.625,1.133,4.433-2.173,6.127,1.293,8.3,3.82,4.2,4.9,10.866,6.441,15.206,11.154.212.23.695.548.827.465,7.682-4.8,9.652,4.846,15.08,5.736-2.722,1.113-4.373-1.147-6.524-1.748-1.938-.541-3.832-5.309-6.114-.34-.028.063-.5-.075-.767-.125a64.3,64.3,0,0,1-21.856-8.354c-7.053-4.327-13.619-9.513-21.557-12.345-1.434-.511-3.934-1.127-2.124-3.781-1.173-.645-1.1-4.462-3.865-1.16-1.695,2.023-3.564.355-4.9-1.308.688-1.492,1.795.382,2.543-.387-.048-.278,0-.693-.163-.825-2.849-2.23-6.412-1.706-9.638-2.5-6.523-1.612-11.047-6.552-16.355-10.185-.711-1.084-1.454-2.146-2.368-3.379C3487.446,860.925,3488.246,861.947,3489,863Z" fill="#f0f1f7"/>
      <path id="Path_4977" data-name="Path 4977" d="M3468.915,1028.019c-5.448-6.958-14.488-8.79-20.751-15.439,2.945-1.168,5.061.152,6.91,1.061,16.629,8.175,31.458,19,45.267,31.273.995.884,3.062,1.879,1.926,3.5-.975,1.387-2.816.366-4.125-.276-2.518-1.234-5.005-2.549-7.416-3.981-5.419-3.218-11.281-5.3-17.213-7.338-2.4-.822-4.236-3.146-6.572-4.292-7.465-3.663-15.051-7.078-22.575-10.621-4.308-2.029-8.84-3.722-12.824-6.267-7.813-4.993-15.12-10.7-21.026-17.915,2.741-3.058,5.458-2.173,8.117-.347,10.923,7.5,21.234,15.9,32.744,22.545,2.258,1.3,3.6,4.827,7.4,2.616.763-.445,2.856,1.337,4.307,2.143C3465.039,1025.764,3466.971,1026.9,3468.915,1028.019Z" fill="#f0f1f7"/>
      <path id="Path_4978" data-name="Path 4978" d="M3543.48,925.433l9.778,5.9c-5.053-.767-10.222-2.055-13.2-6.028-5.4-7.2-13.6-9.828-20.788-14.051a85.7,85.7,0,0,0-16.65-7.921c-.63-.206-1.777-.459-1.782-.711-.128-5.62-5.808-7.156-8.76-11.422a11.636,11.636,0,0,1,7.117,1.971c9.623,6.793,20.711,10.9,30.716,17.057,10.03,6.172,20.791,11.2,31.4,16.371,12.387,6.039,24.984,11.635,37.855,16.6,2.908,1.121,5.9,2.2,7.666,5.13.514.856,1.359,1.6.838,2.67-.677,1.39-1.986,1.084-3.053.715-5.8-2-11.589-4.033-17.734-4.759-.65-.076-1.642-.318-1.4-1.06,1.6-4.842-2.771-3.656-4.783-4.814-.566-.325-1.276-.39-1.862-.689-10.234-5.218-21.509-8.123-31.391-14.135C3546.4,925.614,3545.244,924.723,3543.48,925.433Z" fill="#f0f1f7"/>
      <path id="Path_4979" data-name="Path 4979" d="M3566.046,962.485c9.194,2.01,16.55,6.543,23.075,12.427,1.136,1.024,3.608,2.661,1.237,5.373-2.161,2.473-4.053,2.3-6.363.692-5.014-3.481-10.55-6.28-14.567-11.067A13.637,13.637,0,0,1,3566.046,962.485Z" fill="#f0f1f7"/>
      <path id="Path_4980" data-name="Path 4980" d="M3544,996c1.881.614,4.156-2.187,5.751.635a3.221,3.221,0,0,1,.37,1.783,7.742,7.742,0,0,1-6.558-.131c-.881-.37-1.715-.852-2.57-1.283C3541.654,995.652,3542.547,994.989,3544,996Z" fill="#f1f2f7"/>
      <path id="Path_4981" data-name="Path 4981" d="M3544,996l-3.007,1c-2.516-.316-2.091-2.446-2.745-4.378C3540.748,993.2,3543.647,992.3,3544,996Z" fill="#f2f3f8"/>
      <path id="Path_4982" data-name="Path 4982" d="M3469,939c-1.752-.788-3.667-1.494-2.007-4,1.422-.566,2.9-1.893,4.1.337C3472.37,937.7,3469.527,937.679,3469,939Z" fill="#f5f6f9"/>
      <path id="Path_4983" data-name="Path 4983" d="M3417,861c-3.905.056-4.291-1.377-1.4-4.408.506,1.594.953,3,1.4,4.406Z" fill="#f2f2f8"/>
      <path id="Path_4984" data-name="Path 4984" d="M3479,940c-2.006-.536-4.223-.694-6.6-3.617,3.62.687,5.359,1.7,6.591,3.623Z" fill="#f0f1f7"/>
      <path id="Path_4985" data-name="Path 4985" d="M3449.777,984.821c-8.214-2.652-15.25-6.989-20.384-13.992C3437.61,973.426,3443.294,979.7,3449.777,984.821Z" fill="#fdfdfe"/>
      <path id="Path_4986" data-name="Path 4986" d="M3448.9,906.788c-12.448-10.133-27.725-15.987-40.018-26.5a60.859,60.859,0,0,1,20.7,9.936c2.356,1.809,4.117,4.352,7.616,3.865,1.144-.159,1.708.852,2.194,1.744C3441.748,900.153,3445.56,903.081,3448.9,906.788Z" fill="#fdfdfe"/>
      <path id="Path_4987" data-name="Path 4987" d="M3453.06,908.334c3.131.867,6.233,1.877,9.406,2.544,1.782.374,2.653,1.1,2.512,2.911-.073.935.356,2.21-.771,2.614-1.582.568-2.134-1.149-3.155-1.844q-4.209-2.863-8.423-5.723Z" fill="#fcfdfd"/>
      <path id="Path_4988" data-name="Path 4988" d="M3449.907,875.823l-7.551-4.6C3446.728,871.313,3448.473,873.358,3449.907,875.823Z" fill="#fafafc"/>
      <path id="Path_4989" data-name="Path 4989" d="M3511.013,833c-11.037-2.443-20.625-8.081-30.178-13.766-3.675-2.187-6.874-5.151-11.542-5.425-2.258-.132-3.224-2.562-4.807-3.809.927-1.594,2.73.8,2.987-.986.2-1.4-2.079-.761-2.474-2.017,3.795-.114,7.063,1.361,10.506,3.437l-3.446,1.287Z" fill="#fdfdfe"/>
      <path id="Path_4990" data-name="Path 4990" d="M3481.208,813.6c-1.129.678-2.449.172-2.358-.725.135-1.328,1.163-.175,1.776.025C3480.862,812.978,3481,813.343,3481.208,813.6Z" fill="#f9fafc"/>
      <path id="Path_4991" data-name="Path 4991" d="M3459.313,942.989c3.027,2.574,7.544,2.917,9.893,6.507C3465.558,947.851,3461.112,947.4,3459.313,942.989Z" fill="#fbfcfd"/>
      <path id="Path_4992" data-name="Path 4992" d="M3537,854c2.132-.185,3.8.779,6.389,2.674A9.317,9.317,0,0,1,3537,854Z" fill="#f9f9fc"/>
      <path id="Path_4993" data-name="Path 4993" d="M3603.649,886.51c1.615-.848,2.561.044,3.667,1.045C3605.73,888.173,3604.494,888.262,3603.649,886.51Z" fill="#f9f9fc"/>
      <path id="Path_4994" data-name="Path 4994" d="M3489,863a10.745,10.745,0,0,1-4.3-4.414c-.025-.053,1.242-.993,1.462-.847,1.85,1.222,2.44,3.207,2.836,5.264Z" fill="#fefefe"/>
      <path id="Path_4995" data-name="Path 4995" d="M3483.2,854.754c.308.394.908.847,1.047,1.413.2.83-.657,1.053-1.244,1.149-.975.16-.97-.669-.966-1.3C3482.045,855.414,3481.963,854.625,3483.2,854.754Z" fill="#fbfbfd"/>
    </g>
  </g>
</svg>
