<svg xmlns="http://www.w3.org/2000/svg" xmlns:xlink="http://www.w3.org/1999/xlink" width="328.821" height="187.829" viewBox="0 0 328.821 187.829">
  <defs>
    <radialGradient id="radial-gradient" cx="0.5" cy="0.5" r="2.011" gradientTransform="matrix(-0.905, 0.425, -0.157, -0.335, 1.031, 0.455)" gradientUnits="objectBoundingBox">
      <stop offset="0" stop-color="#0c89f6"/>
      <stop offset="1" stop-color="#76d4fb"/>
    </radialGradient>
  </defs>
  <g id="Group_1950" data-name="Group 1950" transform="translate(145.974 -806.085)">
    <g id="Group_91" data-name="Group 91" transform="translate(-4121.881 855.421)" opacity="0.78">
      <g id="Footsteps" transform="translate(4329.001 14.783) rotate(130)">
        <path id="Path_7" data-name="Path 7" d="M26.334,0c14.544,0,16.94,18.666,16.94,52.411,0,6.04,10.517,29.018,3.934,44.293s-8.934,25.5-20.874,25.5C11.79,122.2,0,94.845,0,61.1S11.79,0,26.334,0Z" transform="translate(99.883 218.787) rotate(-47)" fill="url(#radial-gradient)"/>
        <path id="Path_11" data-name="Path 11" d="M13.269,0C20.6,0,21.8,8.323,21.8,23.37c0,2.693,5.3,12.939,1.982,19.75s-4.5,11.369-10.518,11.369C5.941,54.489,0,42.291,0,27.244S5.941,0,13.269,0Z" transform="translate(0 42.793) rotate(-60)" fill="url(#radial-gradient)"/>
        <path id="Path_9" data-name="Path 9" d="M65.752,2.28c24.8,0,44.1,57.889,44.1,109.379s-25.666,70.91-48.118,70.91c-11.248,0-31.266,7.967-41.688-9.761-3.721-6.329,4.942-36.388,4.942-51.675S.3,53.251.3,36.73C.3,19.12-1.861,10.2,5.464,5.151,19.337-4.42,49.434,2.28,65.752,2.28Z" transform="translate(73.412 117.512) rotate(-51)" fill="url(#radial-gradient)"/>
        <path id="Path_8" data-name="Path 8" d="M13.269,0C20.6,0,21.8,8.323,21.8,23.37c0,2.693,5.3,12.939,1.982,19.75s-4.5,11.369-10.518,11.369C5.941,54.489,0,42.291,0,27.244S5.941,0,13.269,0Z" transform="translate(163.022 215.466) rotate(-60)" fill="url(#radial-gradient)"/>
        <path id="Path_12" data-name="Path 12" d="M16.973,0C26.348,0,31.2,5.946,31.2,25.194c0,3.445-.5,5.55-4.742,14.263S24.67,69.7,16.973,69.7C7.6,69.7,0,54.1,0,34.851S7.6,0,16.973,0Z" transform="translate(44.129 22.815) rotate(-47)" fill="url(#radial-gradient)"/>
        <path id="Path_13" data-name="Path 13" d="M13.269,0C20.6,0,21.8,8.323,21.8,23.37c0,2.693,5.3,12.939,1.982,19.75s-4.5,11.369-10.518,11.369C5.941,54.489,0,42.291,0,27.244S5.941,0,13.269,0Z" transform="matrix(-0.225, 0.974, -0.974, -0.225, 77.712, 86.026)" fill="url(#radial-gradient)"/>
      </g>
    </g>
  </g>
</svg>
