<svg  xmlns="http://www.w3.org/2000/svg" width="326.175" height="359.358" viewBox="0 0 326.175 359.358">
  <g id="Group_1955" data-name="Group 1955" transform="translate(-452.852 -1214.868)">
    <g id="Group_1944" data-name="Group 1944" transform="translate(452.852 1214.868)">
      <g id="Group_1916" data-name="Group 1916" transform="translate(0 14.718)">
        <g id="Group_1903" data-name="Group 1903" transform="translate(81.312 23.112)">
          <g id="Group_1898" data-name="Group 1898" transform="translate(30.44 11.677)">
            <path id="Path_4646" data-name="Path 4646" d="M199.013,96.353l-1.112.668c-1.649.991-2.84.131-2.391-1.726V95.29l-.006,0c.208-.93.1-1.775-1.213-2.008a2.031,2.031,0,0,0-1.4.36,5.561,5.561,0,0,0-2.523,4.125,2.176,2.176,0,0,0,.076.561l-.006,0h0c.453,1.316-.739,3.612-2.39,4.6l-1.112.669a4.913,4.913,0,0,0-2.3,3.683v.43L201.314,97.7v-.429C201.314,96,200.284,95.589,199.013,96.353Zm-6.037,1.2c-.753.452-1.359.211-1.359-.536a2.9,2.9,0,0,1,1.359-2.176c.753-.452,1.359-.21,1.359.543A2.9,2.9,0,0,1,192.976,97.553Z" transform="translate(-172.694 -92.006)" fill="#bcbcbc"/>
            <path id="Path_4647" data-name="Path 4647" d="M211.759,96.056,171.194,120.43v-1.041c0-3.091,2.506-7.1,5.6-8.96l29.369-17.647c3.092-1.858,5.6-.857,5.6,2.234Z" transform="translate(-171.194 -91.848)" fill="#d3d3d3"/>
          </g>
          <g id="Group_1899" data-name="Group 1899">
            <path id="Path_4648" data-name="Path 4648" d="M235.475,79.873l-2.5-1.023-.008.016a2.136,2.136,0,0,0-1.936.156l-91.193,56.046a6.1,6.1,0,0,0-2.906,5.2V288.882a2.514,2.514,0,0,0,1.3,2.216h0a2.572,2.572,0,0,0,.56.23l1.908.782.76-1.468,90.521-55.634a5,5,0,0,0,2.379-4.256V80.883a2.161,2.161,0,0,0-.148-.756l.96.273Z" transform="translate(-136.932 -78.705)" fill="#0b4656"/>
            <path id="Path_4649" data-name="Path 4649" d="M237.026,81.965V231.834a5,5,0,0,1-2.379,4.256l-91.18,56.038a2.539,2.539,0,0,1-3.868-2.163V141.347a6.1,6.1,0,0,1,2.906-5.2L233.7,80.1A2.185,2.185,0,0,1,237.026,81.965Z" transform="translate(-137.23 -78.825)" fill="#063444"/>
            <path id="Path_4650" data-name="Path 4650" d="M234.115,86.363v145.26a1.869,1.869,0,0,1-.891,1.593l-88.581,54.442a.852.852,0,0,1-1.3-.726V141.894a2.72,2.72,0,0,1,1.3-2.317L232.6,85.516A.993.993,0,0,1,234.115,86.363Z" transform="translate(-137.647 -79.448)" fill="#4de4e8"/>
          </g>
          <g id="Group_1902" data-name="Group 1902" transform="translate(12.324 13.009)">
            <path id="Path_4651" data-name="Path 4651" d="M184.661,129.6V183.78a.7.7,0,0,1-.332.594l-33.041,20.307a.318.318,0,0,1-.484-.271v-54.1a1.015,1.015,0,0,1,.483-.864L184.1,129.283A.371.371,0,0,1,184.661,129.6Z" transform="translate(-150.803 -97.351)" fill="#0fb1b5"/>
            <path id="Path_4652" data-name="Path 4652" d="M184.661,202.09v5.194a.7.7,0,0,1-.332.594l-33.041,20.307a.318.318,0,0,1-.484-.271V222.8a1.014,1.014,0,0,1,.483-.864L184.1,201.775A.371.371,0,0,1,184.661,202.09Z" transform="translate(-150.803 -105.438)" fill="#0fb1b5"/>
            <path id="Path_4653" data-name="Path 4653" d="M181.634,182.86v4.131a.555.555,0,0,1-.264.474l-26.285,16.155a.253.253,0,0,1-.386-.215v-4.066a.809.809,0,0,1,.385-.688l26.1-16.042A.294.294,0,0,1,181.634,182.86Z" transform="translate(-151.238 -103.301)" fill="#1cc6c6"/>
            <path id="Path_4654" data-name="Path 4654" d="M184.661,214.217v5.193a.7.7,0,0,1-.332.594l-33.041,20.307a.318.318,0,0,1-.484-.271v-5.11a1.014,1.014,0,0,1,.483-.864L184.1,213.9A.371.371,0,0,1,184.661,214.217Z" transform="translate(-150.803 -106.79)" fill="#0fb1b5"/>
            <path id="Path_4655" data-name="Path 4655" d="M177.145,231.536v5.194a.7.7,0,0,1-.332.594l-25.526,15.693a.318.318,0,0,1-.484-.271v-5.11a1.014,1.014,0,0,1,.483-.864l25.294-15.55A.371.371,0,0,1,177.145,231.536Z" transform="translate(-150.803 -108.723)" fill="#0fb1b5"/>
            <path id="Path_4656" data-name="Path 4656" d="M226.19,194.536v5.194a.7.7,0,0,1-.332.594l-25.526,15.693a.318.318,0,0,1-.484-.271v-5.11a1.014,1.014,0,0,1,.483-.864l25.294-15.55A.371.371,0,0,1,226.19,194.536Z" transform="translate(-156.274 -104.595)" fill="#0fb1b5"/>
            <path id="Path_4657" data-name="Path 4657" d="M226.19,211.761v5.194a.7.7,0,0,1-.332.594l-25.526,15.693a.318.318,0,0,1-.484-.271v-5.11a1.015,1.015,0,0,1,.483-.864l25.294-15.55A.371.371,0,0,1,226.19,211.761Z" transform="translate(-156.274 -106.517)" fill="#0fb1b5"/>
            <path id="Path_4658" data-name="Path 4658" d="M184.661,238.469v5.193a.7.7,0,0,1-.332.594l-33.041,20.307a.318.318,0,0,1-.484-.271v-5.11a1.015,1.015,0,0,1,.483-.864L184.1,238.153A.371.371,0,0,1,184.661,238.469Z" transform="translate(-150.803 -109.496)" fill="#0fb1b5"/>
            <path id="Path_4659" data-name="Path 4659" d="M161.79,275.312v7.529a1.011,1.011,0,0,1-.482.862l-7.005,4.256a.461.461,0,0,1-.7-.393v-7.409a1.47,1.47,0,0,1,.7-1.253l6.67-4.05A.537.537,0,0,1,161.79,275.312Z" transform="translate(-151.115 -113.588)" fill="#0fb1b5"/>
            <path id="Path_4660" data-name="Path 4660" d="M174.837,267.339v7.529a1.011,1.011,0,0,1-.482.862l-7.005,4.256a.461.461,0,0,1-.7-.393v-7.409a1.47,1.47,0,0,1,.7-1.253l6.67-4.049A.537.537,0,0,1,174.837,267.339Z" transform="translate(-152.571 -112.698)" fill="#ffdc79"/>
            <path id="Path_4661" data-name="Path 4661" d="M187.884,259.366V266.9a1.011,1.011,0,0,1-.482.862l-7.006,4.256a.461.461,0,0,1-.7-.393v-7.409a1.471,1.471,0,0,1,.7-1.253l6.67-4.049A.537.537,0,0,1,187.884,259.366Z" transform="translate(-154.026 -111.809)" fill="#fe5c99"/>
            <path id="Path_4662" data-name="Path 4662" d="M220.092,109.2v1.976a.7.7,0,0,1-.332.594l-22.128,13.608a.318.318,0,0,1-.484-.271v-1.893a1.015,1.015,0,0,1,.483-.864l21.9-13.465A.37.37,0,0,1,220.092,109.2Z" transform="translate(-155.973 -95.075)" fill="#0fb1b5"/>
            <path id="Path_4663" data-name="Path 4663" d="M211.967,121.275v1.975a.7.7,0,0,1-.332.594l-14,8.66a.318.318,0,0,1-.484-.271V130.34a1.015,1.015,0,0,1,.483-.864l13.771-8.517A.371.371,0,0,1,211.967,121.275Z" transform="translate(-155.973 -96.422)" fill="#0fb1b5"/>
            <path id="Path_4664" data-name="Path 4664" d="M231.006,114.664v1.976a.7.7,0,0,1-.332.594l-33.041,20.307a.318.318,0,0,1-.484-.271v-1.893a1.015,1.015,0,0,1,.483-.864l32.809-20.164A.371.371,0,0,1,231.006,114.664Z" transform="translate(-155.973 -95.685)" fill="#0fb1b5"/>
            <path id="Path_4665" data-name="Path 4665" d="M228.06,123.142v1.976a.7.7,0,0,1-.332.594l-30.1,18.55a.318.318,0,0,1-.484-.271V142.1a1.015,1.015,0,0,1,.483-.864L227.5,122.827A.37.37,0,0,1,228.06,123.142Z" transform="translate(-155.973 -96.63)" fill="#0fb1b5"/>
            <path id="Path_4666" data-name="Path 4666" d="M214.931,138.767v1.976a.7.7,0,0,1-.333.594L197.632,151.78a.318.318,0,0,1-.484-.271v-1.893a1.015,1.015,0,0,1,.483-.864l16.735-10.3A.371.371,0,0,1,214.931,138.767Z" transform="translate(-155.973 -98.373)" fill="#0fb1b5"/>
            <path id="Path_4667" data-name="Path 4667" d="M231.006,134.164v1.976a.7.7,0,0,1-.332.594l-33.041,20.307a.318.318,0,0,1-.484-.271v-1.893a1.015,1.015,0,0,1,.483-.864l32.809-20.164A.371.371,0,0,1,231.006,134.164Z" transform="translate(-155.973 -97.86)" fill="#0fb1b5"/>
            <path id="Path_4668" data-name="Path 4668" d="M231.006,140.664v1.976a.7.7,0,0,1-.332.594l-33.041,20.307a.318.318,0,0,1-.484-.271v-1.893a1.015,1.015,0,0,1,.483-.864l32.809-20.164A.371.371,0,0,1,231.006,140.664Z" transform="translate(-155.973 -98.585)" fill="#0fb1b5"/>
            <path id="Path_4669" data-name="Path 4669" d="M223.078,152.683v1.976a.7.7,0,0,1-.332.594l-25.114,15.4a.318.318,0,0,1-.484-.271v-1.893a1.015,1.015,0,0,1,.483-.864l24.882-15.261A.371.371,0,0,1,223.078,152.683Z" transform="translate(-155.973 -99.926)" fill="#0fb1b5"/>
            <path id="Path_4670" data-name="Path 4670" d="M231.006,153.664v1.976a.7.7,0,0,1-.332.594l-33.041,20.307a.318.318,0,0,1-.484-.271v-1.893a1.015,1.015,0,0,1,.483-.864l32.809-20.164A.371.371,0,0,1,231.006,153.664Z" transform="translate(-155.973 -100.035)" fill="#0fb1b5"/>
            <path id="Path_4671" data-name="Path 4671" d="M231.006,160.164v1.976a.7.7,0,0,1-.332.594l-33.041,20.307a.318.318,0,0,1-.484-.271v-1.893a1.015,1.015,0,0,1,.483-.864l32.809-20.164A.371.371,0,0,1,231.006,160.164Z" transform="translate(-155.973 -100.76)" fill="#0fb1b5"/>
            <g id="Group_1900" data-name="Group 1900" transform="translate(3.461 52.965)">
              <path id="Path_4672" data-name="Path 4672" d="M174.723,156.049c0,3.072-2.491,9.357-5.563,11.277S163.6,166.074,163.6,163s2.49-7.12,5.563-9.04S174.723,152.975,174.723,156.049Z" transform="translate(-155.692 -152.963)" fill="#fff"/>
              <path id="Path_4673" data-name="Path 4673" d="M181.634,174.878v.9L154.7,192.613v-.9c0-7.438,6.03-17.235,13.468-21.882,3.721-2.326,7.087-2.921,9.523-2.008S181.634,171.162,181.634,174.878Z" transform="translate(-154.699 -154.575)" fill="#fff"/>
            </g>
            <g id="Group_1901" data-name="Group 1901" transform="translate(20.893)">
              <path id="Path_4674" data-name="Path 4674" d="M214.884,97.556,174.319,121.93v-1.041c0-3.091,2.506-7.1,5.6-8.96l29.369-17.647c3.092-1.858,5.6-.857,5.6,2.234Z" transform="translate(-174.319 -93.348)" fill="#fff"/>
              <path id="Path_4675" data-name="Path 4675" d="M202.138,97.853l-1.112.668c-1.649.991-2.84.131-2.391-1.726V96.79l-.006,0c.208-.93.1-1.775-1.213-2.008a2.031,2.031,0,0,0-1.4.36,5.561,5.561,0,0,0-2.523,4.125,2.178,2.178,0,0,0,.076.561l-.006,0h0c.453,1.316-.739,3.612-2.39,4.6l-1.112.669a4.913,4.913,0,0,0-2.3,3.683v.43L204.439,99.2v-.429C204.439,97.5,203.409,97.089,202.138,97.853Zm-6.037,1.2c-.753.452-1.359.211-1.359-.536a2.9,2.9,0,0,1,1.359-2.176c.753-.452,1.359-.21,1.359.543A2.9,2.9,0,0,1,196.1,99.053Z" transform="translate(-175.819 -93.506)" fill="#eaeaea"/>
            </g>
            <path id="Path_4676" data-name="Path 4676" d="M233.451,127.576v1.976a.7.7,0,0,1-.332.594l-13.569,8.428a.318.318,0,0,1-.484-.271v-1.892a1.015,1.015,0,0,1,.483-.864l13.337-8.286A.371.371,0,0,1,233.451,127.576Z" transform="translate(-158.418 -97.125)" fill="#0fb1b5"/>
          </g>
        </g>
        <g id="Group_1909" data-name="Group 1909" transform="translate(192.688)" opacity="0.6">
          <g id="Group_1904" data-name="Group 1904" transform="translate(21.053 8.076)">
            <path id="Path_4677" data-name="Path 4677" d="M305.231,64.9l-.769.462c-1.141.685-1.964.091-1.653-1.194v0l0,0c.143-.643.066-1.227-.84-1.388a1.394,1.394,0,0,0-.966.248,3.846,3.846,0,0,0-1.746,2.854,1.53,1.53,0,0,0,.052.388l0,0h0c.314.91-.511,2.5-1.652,3.183l-.769.463a3.4,3.4,0,0,0-1.592,2.548v.3l11.536-6.931v-.3C306.824,64.654,306.111,64.369,305.231,64.9Zm-4.176.83c-.521.313-.94.145-.94-.371a2,2,0,0,1,.94-1.505c.521-.313.94-.145.94.376A2,2,0,0,1,301.056,65.728Z" transform="translate(-287.027 -61.891)" fill="#bcbcbc"/>
            <path id="Path_4678" data-name="Path 4678" d="M314.047,64.692,285.99,81.551v-.72a8.268,8.268,0,0,1,3.872-6.2l20.314-12.206c2.138-1.285,3.871-.593,3.871,1.545Z" transform="translate(-285.99 -61.781)" fill="#d3d3d3"/>
          </g>
          <g id="Group_1905" data-name="Group 1905" transform="translate(0)">
            <path id="Path_4679" data-name="Path 4679" d="M330.451,53.5l-1.729-.707-.005.011a1.481,1.481,0,0,0-1.34.108L264.3,91.675a4.22,4.22,0,0,0-2.01,3.595V198.062a1.738,1.738,0,0,0,.9,1.533h0a1.778,1.778,0,0,0,.387.159l1.319.541.525-1.015,62.61-38.48a3.455,3.455,0,0,0,1.646-2.943V54.2a1.482,1.482,0,0,0-.1-.523l.664.189Z" transform="translate(-262.293 -52.691)" fill="#0b4656"/>
            <path id="Path_4680" data-name="Path 4680" d="M331.523,54.946V158.6a3.453,3.453,0,0,1-1.645,2.943l-63.065,38.759a1.756,1.756,0,0,1-2.676-1.5V96.019a4.221,4.221,0,0,1,2.01-3.595l63.075-38.765A1.511,1.511,0,0,1,331.523,54.946Z" transform="translate(-262.499 -52.774)" fill="#063444"/>
            <path id="Path_4681" data-name="Path 4681" d="M329.511,57.988v100.47a1.293,1.293,0,0,1-.617,1.1l-61.268,37.655a.589.589,0,0,1-.9-.5V96.4a1.881,1.881,0,0,1,.9-1.6L328.464,57.4A.687.687,0,0,1,329.511,57.988Z" transform="translate(-262.788 -53.205)" fill="#4de4e8"/>
          </g>
          <g id="Group_1908" data-name="Group 1908" transform="translate(8.524 8.998)">
            <path id="Path_4682" data-name="Path 4682" d="M295.3,87.892v37.475a.483.483,0,0,1-.23.411l-22.852,14.045a.22.22,0,0,1-.335-.187V102.219a.7.7,0,0,1,.334-.6l22.693-13.948A.257.257,0,0,1,295.3,87.892Z" transform="translate(-271.887 -65.587)" fill="#0fb1b5"/>
            <path id="Path_4683" data-name="Path 4683" d="M295.3,138.032v3.593a.481.481,0,0,1-.23.41l-22.852,14.045a.22.22,0,0,1-.335-.187v-3.534a.7.7,0,0,1,.334-.6l22.693-13.947A.256.256,0,0,1,295.3,138.032Z" transform="translate(-271.887 -71.181)" fill="#0fb1b5"/>
            <path id="Path_4684" data-name="Path 4684" d="M293.211,124.73v2.858a.384.384,0,0,1-.182.327l-18.181,11.174a.175.175,0,0,1-.267-.149v-2.812a.558.558,0,0,1,.267-.475l18.053-11.1A.2.2,0,0,1,293.211,124.73Z" transform="translate(-272.188 -69.703)" fill="#1cc6c6"/>
            <path id="Path_4685" data-name="Path 4685" d="M295.3,146.42v3.592a.483.483,0,0,1-.23.411l-22.852,14.044a.219.219,0,0,1-.335-.187v-3.535a.7.7,0,0,1,.334-.6L294.914,146.2A.257.257,0,0,1,295.3,146.42Z" transform="translate(-271.887 -72.117)" fill="#0fb1b5"/>
            <path id="Path_4686" data-name="Path 4686" d="M290.106,158.4v3.592a.483.483,0,0,1-.23.411l-17.654,10.854a.22.22,0,0,1-.335-.187v-3.535a.7.7,0,0,1,.334-.6l17.494-10.755A.256.256,0,0,1,290.106,158.4Z" transform="translate(-271.887 -73.453)" fill="#0fb1b5"/>
            <path id="Path_4687" data-name="Path 4687" d="M324.028,132.807V136.4a.482.482,0,0,1-.229.41l-17.655,10.854a.22.22,0,0,1-.335-.187v-3.534a.7.7,0,0,1,.335-.6l17.494-10.755A.256.256,0,0,1,324.028,132.807Z" transform="translate(-275.671 -70.598)" fill="#0fb1b5"/>
            <path id="Path_4688" data-name="Path 4688" d="M324.028,144.721v3.593a.483.483,0,0,1-.229.41l-17.655,10.854a.22.22,0,0,1-.335-.187v-3.534a.7.7,0,0,1,.335-.6L323.638,144.5A.256.256,0,0,1,324.028,144.721Z" transform="translate(-275.671 -71.927)" fill="#0fb1b5"/>
            <path id="Path_4689" data-name="Path 4689" d="M295.3,163.194v3.592a.483.483,0,0,1-.23.411l-22.852,14.045a.22.22,0,0,1-.335-.187V177.52a.7.7,0,0,1,.334-.6l22.693-13.947A.257.257,0,0,1,295.3,163.194Z" transform="translate(-271.887 -73.988)" fill="#0fb1b5"/>
            <path id="Path_4690" data-name="Path 4690" d="M279.486,188.676v5.208a.7.7,0,0,1-.333.6l-4.846,2.944a.319.319,0,0,1-.485-.272v-5.125a1.016,1.016,0,0,1,.484-.866l4.614-2.8A.371.371,0,0,1,279.486,188.676Z" transform="translate(-272.103 -76.818)" fill="#0fb1b5"/>
            <path id="Path_4691" data-name="Path 4691" d="M288.51,183.162v5.207a.7.7,0,0,1-.333.6l-4.846,2.943a.318.318,0,0,1-.485-.272v-5.124a1.017,1.017,0,0,1,.484-.867l4.614-2.8A.372.372,0,0,1,288.51,183.162Z" transform="translate(-273.11 -76.203)" fill="#ffdc79"/>
            <path id="Path_4692" data-name="Path 4692" d="M297.534,177.647v5.207a.7.7,0,0,1-.333.6l-4.846,2.943a.319.319,0,0,1-.486-.271V181a1.019,1.019,0,0,1,.485-.867l4.614-2.8A.372.372,0,0,1,297.534,177.647Z" transform="translate(-274.116 -75.588)" fill="#fe5c99"/>
            <path id="Path_4693" data-name="Path 4693" d="M319.811,73.787v1.366a.48.48,0,0,1-.23.41l-15.3,9.412a.22.22,0,0,1-.335-.187V83.48a.7.7,0,0,1,.334-.6l15.144-9.314A.257.257,0,0,1,319.811,73.787Z" transform="translate(-275.463 -64.014)" fill="#0fb1b5"/>
            <path id="Path_4694" data-name="Path 4694" d="M314.191,82.135V83.5a.482.482,0,0,1-.23.411L304.277,89.9a.22.22,0,0,1-.335-.187V88.405a.7.7,0,0,1,.334-.6l9.525-5.891A.256.256,0,0,1,314.191,82.135Z" transform="translate(-275.463 -64.945)" fill="#0fb1b5"/>
            <path id="Path_4695" data-name="Path 4695" d="M327.359,77.563v1.366a.483.483,0,0,1-.23.411L304.277,93.386a.22.22,0,0,1-.335-.187V91.89a.7.7,0,0,1,.334-.6l22.693-13.948A.257.257,0,0,1,327.359,77.563Z" transform="translate(-275.463 -64.435)" fill="#0fb1b5"/>
            <path id="Path_4696" data-name="Path 4696" d="M325.322,83.427v1.366a.481.481,0,0,1-.23.41L304.277,98.034a.22.22,0,0,1-.335-.187v-1.31a.7.7,0,0,1,.334-.6l20.656-12.731A.256.256,0,0,1,325.322,83.427Z" transform="translate(-275.463 -65.089)" fill="#0fb1b5"/>
            <path id="Path_4697" data-name="Path 4697" d="M316.241,94.234V95.6a.484.484,0,0,1-.229.411l-11.734,7.222a.22.22,0,0,1-.335-.187v-1.31a.7.7,0,0,1,.334-.6l11.575-7.124A.256.256,0,0,1,316.241,94.234Z" transform="translate(-275.463 -66.295)" fill="#0fb1b5"/>
            <path id="Path_4698" data-name="Path 4698" d="M327.359,91.051v1.366a.482.482,0,0,1-.23.41l-22.852,14.045a.22.22,0,0,1-.335-.187v-1.309a.7.7,0,0,1,.334-.6l22.693-13.947A.257.257,0,0,1,327.359,91.051Z" transform="translate(-275.463 -65.94)" fill="#0fb1b5"/>
            <path id="Path_4699" data-name="Path 4699" d="M327.359,95.546v1.366a.483.483,0,0,1-.23.411l-22.852,14.045a.22.22,0,0,1-.335-.187v-1.309a.7.7,0,0,1,.334-.6l22.693-13.947A.256.256,0,0,1,327.359,95.546Z" transform="translate(-275.463 -66.441)" fill="#0fb1b5"/>
            <path id="Path_4700" data-name="Path 4700" d="M321.876,103.859v1.367a.482.482,0,0,1-.23.41l-17.369,10.654a.22.22,0,0,1-.335-.187v-1.31a.7.7,0,0,1,.334-.6l17.21-10.556A.256.256,0,0,1,321.876,103.859Z" transform="translate(-275.463 -67.369)" fill="#0fb1b5"/>
            <path id="Path_4701" data-name="Path 4701" d="M327.359,104.538V105.9a.483.483,0,0,1-.23.411l-22.852,14.045a.22.22,0,0,1-.335-.187v-1.31a.7.7,0,0,1,.334-.6l22.693-13.947A.257.257,0,0,1,327.359,104.538Z" transform="translate(-275.463 -67.444)" fill="#0fb1b5"/>
            <path id="Path_4702" data-name="Path 4702" d="M327.359,109.034V110.4a.481.481,0,0,1-.23.41l-22.852,14.045a.22.22,0,0,1-.335-.187v-1.31a.7.7,0,0,1,.334-.6l22.693-13.947A.257.257,0,0,1,327.359,109.034Z" transform="translate(-275.463 -67.946)" fill="#0fb1b5"/>
            <g id="Group_1906" data-name="Group 1906" transform="translate(2.393 36.634)">
              <path id="Path_4703" data-name="Path 4703" d="M288.431,106.186c0,2.125-1.723,6.472-3.848,7.8s-3.848-.866-3.848-2.991,1.723-4.925,3.848-6.253S288.431,104.061,288.431,106.186Z" transform="translate(-275.268 -104.053)" fill="#fff"/>
              <path id="Path_4704" data-name="Path 4704" d="M293.211,119.21v.625l-18.63,11.641v-.625c0-5.145,4.17-11.921,9.315-15.135,2.574-1.609,4.9-2.02,6.587-1.389S293.211,116.64,293.211,119.21Z" transform="translate(-274.581 -105.167)" fill="#fff"/>
            </g>
            <g id="Group_1907" data-name="Group 1907" transform="translate(14.451)">
              <path id="Path_4705" data-name="Path 4705" d="M316.209,65.73,288.152,82.588v-.72a8.271,8.271,0,0,1,3.871-6.2l20.314-12.205c2.138-1.285,3.872-.593,3.872,1.545Z" transform="translate(-288.152 -62.819)" fill="#fff"/>
              <path id="Path_4706" data-name="Path 4706" d="M307.393,65.935l-.77.463c-1.14.685-1.964.09-1.653-1.194v0l0,0c.144-.644.066-1.228-.839-1.389a1.4,1.4,0,0,0-.967.249,3.845,3.845,0,0,0-1.745,2.853,1.48,1.48,0,0,0,.052.388l0,0h0c.314.91-.511,2.5-1.652,3.184l-.77.462A3.4,3.4,0,0,0,297.45,73.5v.3l11.535-6.931v-.3C308.985,65.692,308.272,65.407,307.393,65.935Zm-4.177.83c-.52.313-.94.146-.94-.37a2.005,2.005,0,0,1,.94-1.505c.521-.313.941-.145.941.375A2,2,0,0,1,303.217,66.765Z" transform="translate(-289.189 -62.928)" fill="#eaeaea"/>
            </g>
            <path id="Path_4707" data-name="Path 4707" d="M329.051,86.494V87.86a.483.483,0,0,1-.23.411L319.436,94.1a.22.22,0,0,1-.335-.187V92.6a.7.7,0,0,1,.334-.6l9.225-5.731A.256.256,0,0,1,329.051,86.494Z" transform="translate(-277.154 -65.431)" fill="#0fb1b5"/>
          </g>
        </g>
        <g id="Group_1915" data-name="Group 1915" transform="translate(0 118.008)" opacity="0.4">
          <g id="Group_1910" data-name="Group 1910" transform="translate(21.054 8.076)">
            <path id="Path_4708" data-name="Path 4708" d="M88.349,197.724l-.769.462c-1.141.685-1.965.091-1.653-1.194v0l0,0c.143-.643.066-1.227-.84-1.388a1.4,1.4,0,0,0-.967.248,3.847,3.847,0,0,0-1.745,2.854,1.531,1.531,0,0,0,.052.388l0,0h0c.314.91-.511,2.5-1.653,3.183l-.769.463a3.4,3.4,0,0,0-1.592,2.548v.3l11.536-6.931v-.3C89.942,197.48,89.228,197.2,88.349,197.724Zm-4.176.83c-.521.313-.94.145-.94-.371a2,2,0,0,1,.94-1.5c.521-.313.94-.146.94.375A2,2,0,0,1,84.174,198.554Z" transform="translate(-70.145 -194.717)" fill="#bcbcbc"/>
            <path id="Path_4709" data-name="Path 4709" d="M97.165,197.518,69.108,214.377v-.72a8.268,8.268,0,0,1,3.872-6.2l20.314-12.206c2.138-1.285,3.871-.593,3.871,1.546Z" transform="translate(-69.108 -194.607)" fill="#d3d3d3"/>
          </g>
          <g id="Group_1911" data-name="Group 1911">
            <path id="Path_4710" data-name="Path 4710" d="M113.569,186.325l-1.729-.707-.005.011a1.481,1.481,0,0,0-1.34.108L47.421,224.5A4.218,4.218,0,0,0,45.41,228.1V330.888a1.739,1.739,0,0,0,.9,1.533h0a1.78,1.78,0,0,0,.387.159l1.319.541.525-1.015,62.61-38.48a3.454,3.454,0,0,0,1.645-2.943V187.024a1.5,1.5,0,0,0-.1-.523l.664.189Z" transform="translate(-45.41 -185.517)" fill="#0b4656"/>
            <path id="Path_4711" data-name="Path 4711" d="M114.641,187.772V291.431A3.453,3.453,0,0,1,113,294.373l-63.065,38.76a1.757,1.757,0,0,1-2.676-1.5V228.845a4.219,4.219,0,0,1,2.01-3.595l63.075-38.765A1.511,1.511,0,0,1,114.641,187.772Z" transform="translate(-45.616 -185.6)" fill="#063444"/>
            <path id="Path_4712" data-name="Path 4712" d="M112.629,190.814V291.285a1.293,1.293,0,0,1-.617,1.1L50.744,330.041a.589.589,0,0,1-.9-.5V229.223a1.881,1.881,0,0,1,.9-1.6l60.84-37.392A.687.687,0,0,1,112.629,190.814Z" transform="translate(-45.905 -186.031)" fill="#4de4e8"/>
          </g>
          <g id="Group_1914" data-name="Group 1914" transform="translate(8.525 8.998)">
            <path id="Path_4713" data-name="Path 4713" d="M78.423,220.718v37.475a.483.483,0,0,1-.23.411L55.34,272.65a.22.22,0,0,1-.335-.187V235.045a.7.7,0,0,1,.334-.6L78.032,220.5A.256.256,0,0,1,78.423,220.718Z" transform="translate(-55.005 -198.413)" fill="#0fb1b5"/>
            <path id="Path_4714" data-name="Path 4714" d="M78.423,270.858v3.593a.484.484,0,0,1-.23.411L55.34,288.907a.219.219,0,0,1-.335-.187v-3.535a.7.7,0,0,1,.334-.6L78.032,270.64A.257.257,0,0,1,78.423,270.858Z" transform="translate(-55.005 -204.007)" fill="#0fb1b5"/>
            <path id="Path_4715" data-name="Path 4715" d="M76.329,257.557v2.857a.383.383,0,0,1-.183.327l-18.18,11.174a.175.175,0,0,1-.267-.149v-2.812a.557.557,0,0,1,.266-.475l18.054-11.1A.2.2,0,0,1,76.329,257.557Z" transform="translate(-55.306 -202.529)" fill="#1cc6c6"/>
            <path id="Path_4716" data-name="Path 4716" d="M78.423,279.246v3.592a.483.483,0,0,1-.23.411L55.34,297.294a.219.219,0,0,1-.335-.187v-3.535a.7.7,0,0,1,.334-.6l22.693-13.947A.257.257,0,0,1,78.423,279.246Z" transform="translate(-55.005 -204.943)" fill="#0fb1b5"/>
            <path id="Path_4717" data-name="Path 4717" d="M73.224,291.225v3.592a.483.483,0,0,1-.23.411L55.34,306.082a.22.22,0,0,1-.335-.187V302.36a.7.7,0,0,1,.334-.6l17.494-10.755A.257.257,0,0,1,73.224,291.225Z" transform="translate(-55.005 -206.279)" fill="#0fb1b5"/>
            <path id="Path_4718" data-name="Path 4718" d="M107.146,265.633v3.593a.485.485,0,0,1-.229.411L89.262,280.49a.22.22,0,0,1-.335-.187v-3.534a.7.7,0,0,1,.334-.6l17.5-10.755A.256.256,0,0,1,107.146,265.633Z" transform="translate(-58.789 -203.424)" fill="#0fb1b5"/>
            <path id="Path_4719" data-name="Path 4719" d="M107.146,277.547v3.593a.482.482,0,0,1-.229.41L89.262,292.4a.22.22,0,0,1-.335-.187v-3.534a.7.7,0,0,1,.334-.6l17.5-10.755A.256.256,0,0,1,107.146,277.547Z" transform="translate(-58.789 -204.753)" fill="#0fb1b5"/>
            <path id="Path_4720" data-name="Path 4720" d="M78.423,296.02v3.592a.483.483,0,0,1-.23.411L55.34,314.068a.22.22,0,0,1-.335-.187v-3.535a.7.7,0,0,1,.334-.6L78.032,295.8A.257.257,0,0,1,78.423,296.02Z" transform="translate(-55.005 -206.814)" fill="#0fb1b5"/>
            <path id="Path_4721" data-name="Path 4721" d="M62.6,321.5v5.208a.7.7,0,0,1-.333.6l-4.846,2.943a.319.319,0,0,1-.485-.272v-5.125a1.017,1.017,0,0,1,.484-.866l4.614-2.8A.371.371,0,0,1,62.6,321.5Z" transform="translate(-55.221 -209.644)" fill="#0fb1b5"/>
            <path id="Path_4722" data-name="Path 4722" d="M71.628,315.988V321.2a.7.7,0,0,1-.333.6l-4.846,2.943a.319.319,0,0,1-.486-.272V319.34a1.019,1.019,0,0,1,.485-.867l4.614-2.8A.371.371,0,0,1,71.628,315.988Z" transform="translate(-56.227 -209.029)" fill="#ffdc79"/>
            <path id="Path_4723" data-name="Path 4723" d="M80.652,310.473v5.207a.7.7,0,0,1-.333.6l-4.846,2.943a.319.319,0,0,1-.486-.271v-5.125a1.016,1.016,0,0,1,.485-.866l4.614-2.8A.371.371,0,0,1,80.652,310.473Z" transform="translate(-57.234 -208.414)" fill="#fe5c99"/>
            <path id="Path_4724" data-name="Path 4724" d="M102.929,206.613v1.366a.483.483,0,0,1-.23.411l-15.3,9.411a.219.219,0,0,1-.335-.187v-1.31a.7.7,0,0,1,.334-.6l15.144-9.314A.257.257,0,0,1,102.929,206.613Z" transform="translate(-58.581 -196.84)" fill="#0fb1b5"/>
            <path id="Path_4725" data-name="Path 4725" d="M97.309,214.961v1.366a.483.483,0,0,1-.23.411l-9.684,5.989a.22.22,0,0,1-.335-.187v-1.309a.7.7,0,0,1,.334-.6l9.525-5.89A.256.256,0,0,1,97.309,214.961Z" transform="translate(-58.581 -197.771)" fill="#0fb1b5"/>
            <path id="Path_4726" data-name="Path 4726" d="M110.478,210.389v1.366a.483.483,0,0,1-.23.411L87.395,226.212a.22.22,0,0,1-.335-.187v-1.309a.7.7,0,0,1,.334-.6l22.693-13.947A.256.256,0,0,1,110.478,210.389Z" transform="translate(-58.581 -197.261)" fill="#0fb1b5"/>
            <path id="Path_4727" data-name="Path 4727" d="M108.44,216.253v1.366a.483.483,0,0,1-.23.411l-20.815,12.83a.22.22,0,0,1-.335-.187v-1.31a.7.7,0,0,1,.334-.6l20.656-12.731A.256.256,0,0,1,108.44,216.253Z" transform="translate(-58.581 -197.915)" fill="#0fb1b5"/>
            <path id="Path_4728" data-name="Path 4728" d="M99.359,227.06v1.366a.484.484,0,0,1-.229.411L87.395,236.06a.219.219,0,0,1-.335-.187v-1.31a.7.7,0,0,1,.334-.6l11.575-7.124A.256.256,0,0,1,99.359,227.06Z" transform="translate(-58.581 -199.121)" fill="#0fb1b5"/>
            <path id="Path_4729" data-name="Path 4729" d="M110.478,223.877v1.366a.481.481,0,0,1-.23.41L87.395,239.7a.22.22,0,0,1-.335-.187V238.2a.7.7,0,0,1,.334-.6l22.693-13.947A.257.257,0,0,1,110.478,223.877Z" transform="translate(-58.581 -198.766)" fill="#0fb1b5"/>
            <path id="Path_4730" data-name="Path 4730" d="M110.478,228.372v1.367a.482.482,0,0,1-.23.41L87.395,244.2a.22.22,0,0,1-.335-.187V242.7a.7.7,0,0,1,.334-.6l22.693-13.947A.257.257,0,0,1,110.478,228.372Z" transform="translate(-58.581 -199.267)" fill="#0fb1b5"/>
            <path id="Path_4731" data-name="Path 4731" d="M104.994,236.686v1.366a.481.481,0,0,1-.23.41L87.395,249.117a.22.22,0,0,1-.335-.187v-1.309a.7.7,0,0,1,.334-.6L104.6,236.467A.256.256,0,0,1,104.994,236.686Z" transform="translate(-58.581 -200.195)" fill="#0fb1b5"/>
            <path id="Path_4732" data-name="Path 4732" d="M110.478,237.364v1.366a.483.483,0,0,1-.23.411L87.395,253.187A.22.22,0,0,1,87.06,253v-1.31a.7.7,0,0,1,.334-.6l22.693-13.948A.257.257,0,0,1,110.478,237.364Z" transform="translate(-58.581 -200.27)" fill="#0fb1b5"/>
            <path id="Path_4733" data-name="Path 4733" d="M110.478,241.86v1.366a.483.483,0,0,1-.23.411L87.395,257.682a.219.219,0,0,1-.335-.187v-1.31a.7.7,0,0,1,.334-.6l22.693-13.947A.257.257,0,0,1,110.478,241.86Z" transform="translate(-58.581 -200.772)" fill="#0fb1b5"/>
            <g id="Group_1912" data-name="Group 1912" transform="translate(2.393 36.634)">
              <path id="Path_4734" data-name="Path 4734" d="M71.549,239.012c0,2.125-1.723,6.472-3.848,7.8s-3.848-.866-3.848-2.991,1.723-4.925,3.848-6.253S71.549,236.887,71.549,239.012Z" transform="translate(-58.386 -236.879)" fill="#fff"/>
              <path id="Path_4735" data-name="Path 4735" d="M76.329,252.036v.625L57.7,264.3v-.625c0-5.145,4.17-11.921,9.315-15.135,2.574-1.609,4.9-2.02,6.587-1.389S76.329,249.466,76.329,252.036Z" transform="translate(-57.699 -237.993)" fill="#fff"/>
            </g>
            <g id="Group_1913" data-name="Group 1913" transform="translate(14.45)">
              <path id="Path_4736" data-name="Path 4736" d="M99.327,198.556,71.27,215.414v-.72a8.271,8.271,0,0,1,3.871-6.2l20.314-12.205c2.138-1.285,3.872-.593,3.872,1.545Z" transform="translate(-71.27 -195.645)" fill="#fff"/>
              <path id="Path_4737" data-name="Path 4737" d="M90.511,198.761l-.77.463c-1.14.685-1.964.09-1.653-1.194v0l0,0c.144-.643.066-1.228-.839-1.389a1.4,1.4,0,0,0-.967.249,3.845,3.845,0,0,0-1.745,2.853,1.481,1.481,0,0,0,.052.388l0,0h0c.314.91-.511,2.5-1.653,3.184l-.769.462a3.4,3.4,0,0,0-1.591,2.548v.3L92.1,199.694v-.3C92.1,198.518,91.39,198.233,90.511,198.761Zm-4.177.83c-.52.313-.94.146-.94-.37a2.005,2.005,0,0,1,.94-1.505c.521-.313.941-.145.941.375A2,2,0,0,1,86.335,199.591Z" transform="translate(-72.307 -195.754)" fill="#eaeaea"/>
            </g>
            <path id="Path_4738" data-name="Path 4738" d="M112.169,219.32v1.366a.483.483,0,0,1-.23.411l-9.385,5.829a.219.219,0,0,1-.334-.187V225.43a.7.7,0,0,1,.334-.6l9.225-5.731A.257.257,0,0,1,112.169,219.32Z" transform="translate(-60.272 -198.257)" fill="#0fb1b5"/>
          </g>
        </g>
      </g>
      <g id="Group_1917" data-name="Group 1917" transform="translate(117.075 229.874)">
        <path id="Path_4739" data-name="Path 4739" d="M257.109,332.473l-37.3,22.488a4.291,4.291,0,0,1-4.454-.012l-37.482-22.9a1.434,1.434,0,0,1,.007-2.451l38.079-22.957a3.7,3.7,0,0,1,3.84.012l37.321,22.8A1.767,1.767,0,0,1,257.109,332.473Z" transform="translate(-177.186 -296.119)" fill="#076d6d" opacity="0.5"/>
        <path id="Path_4740" data-name="Path 4740" d="M257.95,319.6a1.739,1.739,0,0,0-.832-1.394l-37.321-22.8a3.7,3.7,0,0,0-3.84-.012l-38.079,22.956a1.421,1.421,0,0,0-.69,1.246h0v6.237l.031,0a1.406,1.406,0,0,0,.655.962l37.482,22.9a4.291,4.291,0,0,0,4.454.012l37.3-22.488a1.743,1.743,0,0,0,.84-1.63h.015v-6Z" transform="translate(-177.186 -294.864)" fill="#ededed"/>
        <path id="Path_4741" data-name="Path 4741" d="M257.109,321.227l-37.3,22.488a4.291,4.291,0,0,1-4.454-.012l-37.482-22.9a1.435,1.435,0,0,1,.007-2.452L215.958,295.4a3.7,3.7,0,0,1,3.84.012l37.321,22.8A1.767,1.767,0,0,1,257.109,321.227Z" transform="translate(-177.186 -294.864)" fill="#fff"/>
      </g>
      <g id="Group_1918" data-name="Group 1918" transform="translate(212.742 292.712)">
        <path id="Path_4742" data-name="Path 4742" d="M364.789,403.955l-37.3,22.488a4.293,4.293,0,0,1-4.455-.013l-37.482-22.9a1.434,1.434,0,0,1,.007-2.452l38.079-22.956a3.7,3.7,0,0,1,3.839.011l37.322,22.8A1.767,1.767,0,0,1,364.789,403.955Z" transform="translate(-284.865 -366.931)" fill="#076d6d" opacity="0.5"/>
        <path id="Path_4743" data-name="Path 4743" d="M365.63,390.328a1.739,1.739,0,0,0-.832-1.394l-37.322-22.8a3.7,3.7,0,0,0-3.839-.011L285.559,389.08a1.421,1.421,0,0,0-.691,1.246h0v6.237l.032,0a1.408,1.408,0,0,0,.655.962l37.482,22.9a4.293,4.293,0,0,0,4.455.013l37.3-22.488a1.743,1.743,0,0,0,.84-1.63h.014v-6Z" transform="translate(-284.865 -365.592)" fill="#ededed"/>
        <path id="Path_4744" data-name="Path 4744" d="M364.789,391.955l-37.3,22.488a4.293,4.293,0,0,1-4.455-.013l-37.482-22.9a1.434,1.434,0,0,1,.007-2.452l38.079-22.956a3.7,3.7,0,0,1,3.839.011l37.322,22.8A1.767,1.767,0,0,1,364.789,391.955Z" transform="translate(-284.865 -365.592)" fill="#fff"/>
      </g>
      <g id="Group_1919" data-name="Group 1919" transform="translate(215.811 146.608)">
        <path id="Path_4745" data-name="Path 4745" d="M347.312,393.871v.075a.393.393,0,0,1-.012.086.3.3,0,0,0-.025.112c-.136.483-.694,1.735-2.813,2.106a3.839,3.839,0,0,1-.4.05.718.718,0,0,1-.161.025,13.049,13.049,0,0,1-1.587.025c-.173-.012-.346-.025-.521-.05a12.448,12.448,0,0,1-5.006-2.727c-.1-.087-.149-.136-.149-.136V393s-1.525-1.016-2.082-1.35c-1.7-1-4.14-1.859-6.47-3.012a6.886,6.886,0,0,1-1.636-1.1c-.075-.074-.149-.161-.224-.223a1.406,1.406,0,0,1-.136-.136c-.05-.062-.087-.136-.137-.2-.1-.137-.186-.26-.259-.372-.037-.074-.075-.136-.1-.186l-.087-.173a1.025,1.025,0,0,1-.061-.186v-.012a3.023,3.023,0,0,1-.137-.88v-1.525l14.191,5.813,7.758,2.9Z" transform="translate(-292.447 -221.502)" fill="#190b05"/>
        <path id="Path_4746" data-name="Path 4746" d="M338.864,383.074a56.177,56.177,0,0,1-6.25-.77c-3.874-.664-6.546-.853-7.046.355-.486,1.172-.6,2.427,2.863,4.795s6.137,2.614,8.908,4.846a9.687,9.687,0,0,0,5.966,2.187c2.066.142,3.46-.649,3.91-1.491,1.046-1.955-.036-5.659-.036-5.659" transform="translate(-292.447 -221.294)" fill="#442312"/>
        <path id="Path_4747" data-name="Path 4747" d="M331.591,397.3l.012,1.923a1.8,1.8,0,0,1-.977,1.662,2.66,2.66,0,0,1-.838.235,29.381,29.381,0,0,1-6.1-.3v-.71s-1.316-.147-5.193-.628a23.132,23.132,0,0,1-8.029-2.392,1.742,1.742,0,0,1-.927-1.542l.008-1.408,15.244,2.689Z" transform="translate(-290.688 -222.673)" fill="#190b05"/>
        <path id="Path_4748" data-name="Path 4748" d="M320.9,390.092a6.2,6.2,0,0,1-3.693,1.6c-2,0-5.889-.051-6.886.649a1.637,1.637,0,0,0-.78,1.247,2.529,2.529,0,0,0,.53,1.547c.748,1.1,5.789,2.745,9.582,3.045a55.888,55.888,0,0,1,5.788.549c1.8.3,3.666.441,4.8-.12,1.956-.968,2.091-3.922.893-5.869S320.9,390.092,320.9,390.092Z" transform="translate(-290.687 -222.221)" fill="#442312"/>
        <path id="Path_4749" data-name="Path 4749" d="M327.7,240.574,301.078,256.6l-9.27-22.513a1.856,1.856,0,0,1,.76-2.3l23.818-14.338a1.444,1.444,0,0,1,2.079.688Z" transform="translate(-288.694 -202.939)" fill="#063444"/>
        <path id="Path_4750" data-name="Path 4750" d="M326.655,240.268,301.9,255.219l-8.557-20.784c-.387-1.031-.374-1.5.7-2.121L316.9,218.508a.639.639,0,0,1,.921.3Z" transform="translate(-288.854 -203.07)" fill="#4de4e8"/>
        <path id="Path_4751" data-name="Path 4751" d="M303.479,237.505l-5.191,3.124a.265.265,0,0,1-.382-.126l-1.892-4.594a.266.266,0,0,1,.108-.329l5.19-3.124a.265.265,0,0,1,.382.126l1.892,4.6A.265.265,0,0,1,303.479,237.505Z" transform="translate(-289.176 -204.632)" fill="#defffe" opacity="0.5"/>
        <path id="Path_4752" data-name="Path 4752" d="M312.047,232.349l-5.19,3.124a.265.265,0,0,1-.382-.126l-1.891-4.6a.264.264,0,0,1,.108-.328l5.19-3.124a.265.265,0,0,1,.382.126l1.891,4.594A.264.264,0,0,1,312.047,232.349Z" transform="translate(-290.132 -204.056)" fill="#defffe" opacity="0.75"/>
        <path id="Path_4753" data-name="Path 4753" d="M315.339,244.487l-8.423,5.07a.43.43,0,0,1-.62-.205l-3.07-7.457a.43.43,0,0,1,.176-.532l8.424-5.071a.431.431,0,0,1,.62.205l3.07,7.457A.43.43,0,0,1,315.339,244.487Z" transform="translate(-289.979 -205.057)" fill="#defffe"/>
        <path id="Path_4754" data-name="Path 4754" d="M318.234,235.761l-2.809,1.691a.144.144,0,0,1-.207-.068l-.06-.175a.144.144,0,0,1,.059-.178l2.809-1.692a.144.144,0,0,1,.207.068l.06.176A.142.142,0,0,1,318.234,235.761Z" transform="translate(-291.313 -204.955)" fill="#defffe"/>
        <path id="Path_4755" data-name="Path 4755" d="M316.058,238.239a.255.255,0,0,1-.367-.121l-.107-.311a.255.255,0,0,1,.1-.315l4.977-3a.255.255,0,0,1,.366.122l.107.311a.254.254,0,0,1-.1.314" transform="translate(-291.359 -204.859)" fill="#defffe"/>
        <path id="Path_4756" data-name="Path 4756" d="M321.453,236.256l-4.977,3a.254.254,0,0,1-.366-.121l-.107-.312a.254.254,0,0,1,.1-.314l4.977-3a.254.254,0,0,1,.366.121l.107.312A.254.254,0,0,1,321.453,236.256Z" transform="translate(-291.406 -204.972)" fill="#defffe"/>
        <path id="Path_4757" data-name="Path 4757" d="M321.871,237.268l-4.977,3a.254.254,0,0,1-.366-.122l-.107-.311a.254.254,0,0,1,.1-.315l4.977-3a.255.255,0,0,1,.367.121l.107.311A.255.255,0,0,1,321.871,237.268Z" transform="translate(-291.453 -205.085)" fill="#defffe"/>
        <path id="Path_4758" data-name="Path 4758" d="M322.289,238.279l-4.977,3a.255.255,0,0,1-.366-.122l-.108-.311a.254.254,0,0,1,.1-.315l4.978-3a.254.254,0,0,1,.366.121l.107.311A.254.254,0,0,1,322.289,238.279Z" transform="translate(-291.499 -205.198)" fill="#defffe" opacity="0.75"/>
        <path id="Path_4759" data-name="Path 4759" d="M322.708,239.291l-4.977,3a.254.254,0,0,1-.367-.121l-.107-.311a.253.253,0,0,1,.1-.314l4.977-3a.254.254,0,0,1,.366.121l.107.311A.254.254,0,0,1,322.708,239.291Z" transform="translate(-291.546 -205.311)" fill="#defffe" opacity="0.5"/>
        <path id="Path_4760" data-name="Path 4760" d="M320.616,227.192l-5.19,3.125a.265.265,0,0,1-.382-.126l-1.892-4.595a.265.265,0,0,1,.109-.328l5.19-3.125a.266.266,0,0,1,.382.126l1.891,4.6A.265.265,0,0,1,320.616,227.192Z" transform="translate(-291.088 -203.481)" fill="#defffe"/>
        <path id="Path_4761" data-name="Path 4761" d="M330.882,233.816a8.42,8.42,0,0,1-1.937,1.439l-.338-.434a1.3,1.3,0,0,0-.856-.493,4.053,4.053,0,0,1-2.37-.983,12.467,12.467,0,0,1-1.368-2.194.1.1,0,0,1-.018-.036.691.691,0,0,0-.071-.142c-.133-.311-.409-.942-.426-1.031a.218.218,0,0,1,.08-.187.11.11,0,0,0,.027-.018c.231-.124.578-.267.782-.142a6.274,6.274,0,0,1,1.013,1.146,2.965,2.965,0,0,0,1.235.9c.053.027.107.044.151.071,0,0,.3-.169.071-.729l-1.688-4.122c1.715.062,3.163,2.248,3.874,4.06A17.884,17.884,0,0,1,330.882,233.816Z" transform="translate(-292.244 -204.012)" fill="#f4d0ae"/>
        <path id="Path_4762" data-name="Path 4762" d="M303.823,256.352l-2.594,2.159-.489.409s-.6-2.488-1.644-3.429a6.749,6.749,0,0,0-2.008-.906,1.608,1.608,0,0,1-.862-.577,6.4,6.4,0,0,1-.862-4.851,2.934,2.934,0,0,1,.338-1.093.027.027,0,0,0,.009-.018c.32-.551.72-.533.72-.533s1.75,1.244,2.257,1.617c.418.311.951.915,1.359.462.222-.231-1.057-1.848-1.413-2.585s.329-1.537.631-1.253a17.862,17.862,0,0,1,2.816,4.46C302.81,252.114,303.823,256.352,303.823,256.352Z" transform="translate(-289.094 -206.113)" fill="#ffe1bd"/>
        <path id="Path_4763" data-name="Path 4763" d="M301.824,256.958l-.6,1.848-.489.409s-.6-2.488-1.644-3.429a6.748,6.748,0,0,0-2.008-.906,1.608,1.608,0,0,1-.862-.577,6.4,6.4,0,0,1-.862-4.851,2.934,2.934,0,0,1,.338-1.093.027.027,0,0,0,.009-.018s.018.453.737,1.093a18.048,18.048,0,0,0,2.283,1.537,6.9,6.9,0,0,1,1.759,2.648C300.98,254.79,301.824,256.958,301.824,256.958Z" transform="translate(-289.094 -206.408)" fill="#e9c69e" opacity="0.5"/>
        <path id="Path_4764" data-name="Path 4764" d="M343.461,228.612l.31.719-.471,2.379-7.586,3.818-.446-.062-1.215-.148-1.908-.248v-2.628a3.447,3.447,0,0,0-1.97-3.2.825.825,0,0,0-.087-.036,3.711,3.711,0,0,1-1.289-.868l-.111-.111c-1.462-1.549-2.764-5.032-2.392-12.654a14.621,14.621,0,0,1,.979-4.809c1.1-2.119,3.445-3.52,8.279-2.194,8.056,2.231,11.575,5.887,11.985,9.047S343.461,228.612,343.461,228.612Z" transform="translate(-292.549 -201.913)" fill="#ffe1bd"/>
        <path id="Path_4765" data-name="Path 4765" d="M329.515,236.712l-.382-.929a13.541,13.541,0,0,0,2.193-1.623,7.546,7.546,0,0,1,.557.809A4.832,4.832,0,0,1,329.515,236.712Z" transform="translate(-292.873 -204.826)" fill="#fff"/>
        <path id="Path_4766" data-name="Path 4766" d="M329.512,236.663a17.982,17.982,0,0,0,2.495-1.946s.658,1.077,1.2,2.038a7.226,7.226,0,0,1,.439,2.99l-2.515.855Z" transform="translate(-292.915 -204.888)" fill="#232323"/>
        <path id="Path_4767" data-name="Path 4767" d="M332.641,237.73V235.1a3.447,3.447,0,0,0-1.971-3.2c.4.174,1.619.76,3.246,1.632.652.349.633,2.446.633,4.441Z" transform="translate(-293.045 -204.574)" fill="#e9c69e"/>
        <path id="Path_4768" data-name="Path 4768" d="M300.819,259.924l-.453-1.447a1.137,1.137,0,0,1,.057-.835,6.815,6.815,0,0,1,1.186-1.833,1.789,1.789,0,0,1,2.17-.351,3.178,3.178,0,0,1,.564,1.094,3.68,3.68,0,0,1,.112,1.293c-.039.1-.962,1.42-1.07,1.536A24.989,24.989,0,0,1,300.819,259.924Z" transform="translate(-289.658 -207.176)" fill="#efefef"/>
        <path id="Path_4769" data-name="Path 4769" d="M352.158,311.026c-1.8,9.815-3.086,21.986-3.086,21.986s3,24.378-.371,45.608c-.149,1-.5,3.124-1.785,3.954a4.83,4.83,0,0,1-4.164-.025c-.062-.036-.124-.061-.186-.1-5.032-2.752-4.5-6.321-5.23-8.663.012-9.444,1-32.682-1-37.789l-1.8-20.6.657-14.724h18.02v.05l.087-.05S354.835,304.631,352.158,311.026Z" transform="translate(-293.476 -212.247)" fill="#3a3a3a"/>
        <path id="Path_4770" data-name="Path 4770" d="M346.655,311.423c-1.7,5.577-3.879,20.14-4.337,23.7,0,0,1.673,28.047.248,47.332-5.032-2.752-4.5-6.321-5.23-8.663.012-9.444,1-32.682-1-37.789l-1.8-20.6.657-14.724h12.394A27.3,27.3,0,0,1,346.655,311.423Z" transform="translate(-293.476 -212.247)" fill="#2d2d2d"/>
        <path id="Path_4771" data-name="Path 4771" d="M343.673,306.107a28.913,28.913,0,0,1-3.892,9.419c-.346.521-.656,1.053-.954,1.586-.062.248-.942,3.545-2.033,7.969s-2.417,9.977-3.358,14.7c.521,5.924,1.983,26.671-.806,44.642a3.291,3.291,0,0,1-2.367,2.677,5.9,5.9,0,0,1-1.983.211,4.957,4.957,0,0,1-1.661-.4c-2.951-1.239-5.082-5.961-5.082-5.961s-.075-29.844-1.623-37.677a34.808,34.808,0,0,1-.546-4.523c-.285-4.8-.806-13.547-.967-17.2a150.194,150.194,0,0,1-.112-15.752l14.761.186Z" transform="translate(-291.646 -212.818)" fill="#3a3a3a"/>
        <path id="Path_4772" data-name="Path 4772" d="M333.052,305.983c-.075.88-.124,1.462-.124,1.462a37.026,37.026,0,0,1-2.02,9.3c-1.883,5.577-3.751,18.8-3.949,23.759-.2,4.56,2.226,26.3,1.322,46.81a4.957,4.957,0,0,1-1.661-.4c-2.951-1.239-5.082-5.961-5.082-5.961s-.075-29.844-1.623-37.677a34.808,34.808,0,0,1-.546-4.523c-.285-4.8-.806-13.547-.967-17.2a150.194,150.194,0,0,1-.112-15.752Z" transform="translate(-291.646 -212.818)" fill="#2d2d2d"/>
        <path id="Path_4773" data-name="Path 4773" d="M353.159,256.161c-2.379,7.226-3.718,19.1-2.281,24.056a89.846,89.846,0,0,1,2.281,11.984c-1.351,3.718-13.943,11.775-20.97,12.394a10.582,10.582,0,0,1-2.578-.1c-6.184-.918-11.984-6.408-11.984-6.408s1.338-20.35,2.169-33.364a75.084,75.084,0,0,1,2.64-16.681,19.952,19.952,0,0,1,.67-1.958,29.3,29.3,0,0,1,5.787-4.5.21.21,0,0,0,.062-.025c1.9-1.264,4.053-2.6,6.222-3.879h.012c2.887-1.71,5.8-3.309,8.13-4.474q.409-.205.781-.372a18.583,18.583,0,0,1,3.581-1.462c3.309-.619,7.746,1.128,9.084,7.126S355.526,248.923,353.159,256.161Z" transform="translate(-291.589 -204.502)" fill="#353535"/>
        <path id="Path_4774" data-name="Path 4774" d="M328.868,282.081c-.421,5.553.422,19.409.744,24.366-6.184-.918-11.984-6.408-11.984-6.408s1.338-20.35,2.169-33.364a75.084,75.084,0,0,1,2.64-16.681c.67-.769,1.1-1.252,1.1-1.252h8.155s4.239.867,2.7,10.522C332.834,268.919,329.376,275.265,328.868,282.081Z" transform="translate(-291.589 -206.453)" fill="#232323"/>
        <path id="Path_4775" data-name="Path 4775" d="M288.32,215.736" transform="translate(-288.32 -202.771)" fill="#ccc"/>
        <path id="Path_4776" data-name="Path 4776" d="M345.56,236.083c-1.239,1.7-5.684,4.153-7.729,4.586a18.208,18.208,0,0,1-4.663.2,5.932,5.932,0,0,0-2.8.892.21.21,0,0,1-.062.025.038.038,0,0,1-.025.012l1.215-1.847,1.413-.9s2.069-.756,2.528-.967a5.252,5.252,0,0,1,1.153-.2h.012c1.227-.149,2.987-.273,3.26-.31a39.424,39.424,0,0,0,3.718-2.33c.074-.049.706-1.09,1.152-1.834q.409-.205.781-.372A2.366,2.366,0,0,1,345.56,236.083Z" transform="translate(-293.001 -204.7)" fill="#232323"/>
        <path id="Path_4777" data-name="Path 4777" d="M349.819,217.132c-.694,4.14-4.2,10.646-5.974,11.241a10.394,10.394,0,0,1-2.925.558,2.792,2.792,0,0,1-2.875-2.281,13.313,13.313,0,0,0-1.2-3.743c-1.239-2.293-2.863-3.5-3.682-3.062s-.731,1.9-.731,1.9l-.532-.012s-.05-.472-.124-1.1-.124-1.413-.161-2.02a7.02,7.02,0,0,0-1.426-4.288,17.051,17.051,0,0,1-1.983-3.657,6.692,6.692,0,0,1-.495-3.271v-.012c.334-3.185,1.631-4.49,2.863-5.392,4.01-2.935,12.394,2.516,15.492,5.119a10.662,10.662,0,0,1,3.47,4.933v.012A10.632,10.632,0,0,1,349.819,217.132Z" transform="translate(-292.71 -201.143)" fill="#713e23"/>
        <path id="Path_4778" data-name="Path 4778" d="M344.985,232.721l-.768-.713A17.84,17.84,0,0,1,332.6,237.74a9.906,9.906,0,0,0-2.326,3.947l1.055-.682a4.719,4.719,0,0,1,1.828-.712c.414-.065,1.334-.111,1.334-.111,4.138-.057,8.258-2.947,10.412-4.731A1.814,1.814,0,0,0,344.985,232.721Z" transform="translate(-293 -204.586)" fill="#fff"/>
        <path id="Path_4779" data-name="Path 4779" d="M301.151,258.542" transform="translate(-289.751 -207.546)" fill="none" stroke="#381e1e" stroke-miterlimit="10" stroke-width="0.697"/>
        <path id="Path_4780" data-name="Path 4780" d="M292.373,237.455" transform="translate(-288.772 -205.193)" fill="none" stroke="#381e1e" stroke-miterlimit="10" stroke-width="0.697"/>
        <path id="Path_4781" data-name="Path 4781" d="M325.746,387.418a2.081,2.081,0,0,0,.26.375C325.9,387.657,325.815,387.53,325.746,387.418Z" transform="translate(-292.495 -221.923)" fill="#474747"/>
        <path id="Path_4782" data-name="Path 4782" d="M326.175,388.035c-.055-.059-.087-.132-.136-.195.079.1.164.212.272.331A1.526,1.526,0,0,1,326.175,388.035Z" transform="translate(-292.528 -221.97)" fill="#474747"/>
        <path id="Path_4783" data-name="Path 4783" d="M330.7,255.225c-.781,4.56-9.481,17.834-9.84,18.367a64.15,64.15,0,0,1-4.35,6.209H316.5a8.072,8.072,0,0,1-2.7,2.541,2.877,2.877,0,0,1-.347.087,4.679,4.679,0,0,1-5.491-3.062,96.543,96.543,0,0,1-4.536-9.915,92.12,92.12,0,0,1-2.59-10.088,3.048,3.048,0,0,1,.31-2.231c.037-.05.061-.112.1-.162.483-.8,1.153-1.71,1.748-1.809,1.091-.161,1.3.124,1.3.124s2,3.21,3.582,5.689a46.915,46.915,0,0,1,3.16,6.693c.148.422.248.67.248.67,2.875-6.68,6.63-14.885,8.155-18.318a6.2,6.2,0,0,1,10.373-1.549,1.324,1.324,0,0,0,.124.148,2.473,2.473,0,0,1,.41.831l.012-.012.024.025C330.53,249.647,331.434,250.961,330.7,255.225Z" transform="translate(-289.707 -206.181)" fill="#3a3a3a"/>
        <path id="Path_4784" data-name="Path 4784" d="M349.819,217.917c-.694,4.14-4.2,10.646-5.974,11.241a10.4,10.4,0,0,1-2.925.558,2.792,2.792,0,0,1-2.875-2.281,13.313,13.313,0,0,0-1.2-3.743c-1.239-2.293-2.863-3.5-3.682-3.062s-.731,1.9-.731,1.9l-.532-.012s-.05-.472-.124-1.1-.124-1.413-.161-2.02a7.02,7.02,0,0,0-1.426-4.288,17.051,17.051,0,0,1-1.983-3.657,6.692,6.692,0,0,1-.495-3.271,18.308,18.308,0,0,0,13.063,10.745c9.741,2.045,8.824-5.689,8.762-6.085A10.632,10.632,0,0,1,349.819,217.917Z" transform="translate(-292.71 -201.927)" fill="#442312"/>
        <path id="Path_4785" data-name="Path 4785" d="M311.709,275.047s-.533-3.383.533-4.7c.148.422.248.67.248.67A9.023,9.023,0,0,0,311.709,275.047Z" transform="translate(-290.914 -208.863)" fill="#141414"/>
        <path id="Path_4786" data-name="Path 4786" d="M330.38,249.856l-.036-.012s.3,3.805-3.309,10.15-11.29,21.538-15.083,21.119c-2-.221-2.709-3.4-3.508-3.966-1.729-1.236-2.9-5.64-4.548-10.027a73.338,73.338,0,0,1-2.653-9.754c-.037.05-.061.112-.1.162a3.048,3.048,0,0,0-.31,2.231,92.119,92.119,0,0,0,2.59,10.088,96.542,96.542,0,0,0,4.536,9.915,4.682,4.682,0,0,0,5.491,3.044v.018a2.854,2.854,0,0,0,.347-.087,8.072,8.072,0,0,0,2.7-2.541h.012a64.147,64.147,0,0,0,4.35-6.209c.36-.533,9.059-13.806,9.84-18.367C331.434,251.356,330.53,250.042,330.38,249.856Z" transform="translate(-289.707 -206.576)" fill="#2d2d2d"/>
      </g>
      <g id="Group_1920" data-name="Group 1920" transform="translate(109.054 251.025)">
        <path id="Path_4787" data-name="Path 4787" d="M168.157,347.813l24.384,14.907,5.135-3.1-24.384-14.907Z" transform="translate(-168.157 -321.576)" fill="#076d6d" opacity="0.5"/>
        <path id="Path_4788" data-name="Path 4788" d="M200.739,335.449v20.31l-5.135,3.092v-20.3Z" transform="translate(-171.219 -320.542)" fill="#063444"/>
        <path id="Path_4789" data-name="Path 4789" d="M173.292,318.671v20.31l-5.135,3.092v-20.3Z" transform="translate(-168.157 -318.671)" fill="#022636"/>
        <path id="Path_4790" data-name="Path 4790" d="M200.739,335.449v20.31l-5.135,3.092v-20.3Z" transform="translate(-171.219 -320.542)" fill="#063444"/>
        <path id="Path_4791" data-name="Path 4791" d="M168.157,321.771l24.384,14.907,5.135-3.1-24.384-14.907Z" transform="translate(-168.157 -318.671)" fill="#0b4656"/>
        <path id="Path_4792" data-name="Path 4792" d="M192.546,357.368l-24.384-14.907v-20.3l24.384,14.907Z" transform="translate(-168.158 -319.06)" fill="#022636"/>
        <path id="Path_4793" data-name="Path 4793" d="M168.157,322.161l12.192,17.6,12.192-2.7Z" transform="translate(-168.157 -319.06)" fill="#063444"/>
        <path id="Path_4794" data-name="Path 4794" d="M189.127,326.419v4a.658.658,0,0,1-.435.622.667.667,0,0,1-.231.044.66.66,0,0,1-.666-.666v-4a1.1,1.1,0,0,0-.524-.933l-6.1-3.731a.422.422,0,0,0-.444-.009.32.32,0,0,0-.089.062.109.109,0,0,1-.027.018.448.448,0,0,0-.107.3v3.021a.671.671,0,0,1-.418.613.6.6,0,0,1-.249.053.665.665,0,0,1-.666-.666v-3.021a1.732,1.732,0,0,1,.906-1.546,1.383,1.383,0,0,1,.435-.169,1.7,1.7,0,0,1,1.35.2l6.1,3.731A2.427,2.427,0,0,1,189.127,326.419Z" transform="translate(-169.386 -318.858)" fill="#82441d"/>
        <path id="Path_4795" data-name="Path 4795" d="M183.378,341.167v2.074l-.46.277v-2.073Z" transform="translate(-169.804 -321.18)" fill="#f7aa57"/>
        <path id="Path_4796" data-name="Path 4796" d="M180.117,339.734l2.489,1.52.46-.278-2.488-1.519Z" transform="translate(-169.491 -320.989)" fill="#f4b77a"/>
        <path id="Path_4797" data-name="Path 4797" d="M182.605,343.362l-2.489-1.521v-2.072l2.489,1.52Z" transform="translate(-169.491 -321.024)" fill="#eca140"/>
        <path id="Path_4798" data-name="Path 4798" d="M189.3,326.419v4a.658.658,0,0,1-.435.622v-4.007a2.736,2.736,0,0,0-.6-2l-7.587-4.62a1.7,1.7,0,0,1,1.35.2l6.1,3.731A2.427,2.427,0,0,1,189.3,326.419Z" transform="translate(-169.554 -318.858)" fill="#9b5934"/>
        <path id="Path_4799" data-name="Path 4799" d="M180.722,322.011a.449.449,0,0,0-.107.3v3.021a.671.671,0,0,1-.418.613v-3.074A1.029,1.029,0,0,1,180.722,322.011Z" transform="translate(-169.5 -319.043)" fill="#9b5934"/>
      </g>
      <g id="Group_1921" data-name="Group 1921" transform="translate(137.932 111.059)">
        <path id="Path_4800" data-name="Path 4800" d="M204.014,324.746s.386,1.537.609,2.832.291,2.957.44,4.327a18.578,18.578,0,0,0,2.012,5.455,5.313,5.313,0,0,0,2.868,2.041,9.257,9.257,0,0,0,4.416-.088,2.128,2.128,0,0,0,1.13-1.128" transform="translate(-201.036 -179.383)" fill="#190b05"/>
        <path id="Path_4801" data-name="Path 4801" d="M239.746,318.649c0,.853-1.27,1.448-2.576,1.555a13.063,13.063,0,0,1-4.228-.591,20.975,20.975,0,0,1-3.279-1.239,4.232,4.232,0,0,0-2.408-.213s0,.142-.009.3a11.075,11.075,0,0,1-5.873-.986c-.009,0-.009-.009-.018-.009s-.027-.675.018-1.253c.027-.5.115-1.226.115-1.226l18.257,3.047Z" transform="translate(-202.97 -178.294)" fill="#190b05"/>
        <path id="Path_4802" data-name="Path 4802" d="M215.986,336.621c-.018.16-.044.32-.071.471a2.294,2.294,0,0,1-1.573,1.848c-1.715.586-4.886.275-6.45-1.422s-2.674-6.068-2.674-8.68a11.632,11.632,0,0,0-1.368-5.029h7.108a1.732,1.732,0,0,1,.169.231c1.226,1.715,4.416,8.236,4.727,10.341A10.016,10.016,0,0,1,215.986,336.621Z" transform="translate(-201.018 -179.278)" fill="#7f391b"/>
        <path id="Path_4803" data-name="Path 4803" d="M216.84,336.65a.358.358,0,0,1-.071-.178,35.277,35.277,0,0,0-2.8-6.69c-.862-1.724-2.47-4.86-2.47-4.86s.213-.373.48-.853c1.226,1.715,4.416,8.236,4.727,10.341A10.014,10.014,0,0,1,216.84,336.65Z" transform="translate(-201.871 -179.307)" fill="#934b32"/>
        <path id="Path_4804" data-name="Path 4804" d="M215.916,337.088a2.294,2.294,0,0,1-1.573,1.848c-1.715.586-4.886.275-6.45-1.422s-2.674-6.068-2.674-8.68a11.631,11.631,0,0,0-1.368-5.029h2.887l.231,1.5s.08,6.068,1.519,9.071a5.81,5.81,0,0,0,5.224,3.554c1.146-.08,1.875-.231,2.194-.835A.009.009,0,0,1,215.916,337.088Z" transform="translate(-201.018 -179.278)" fill="#682c17"/>
        <path id="Path_4805" data-name="Path 4805" d="M239.739,318.017a1.125,1.125,0,0,1-.64.915c-1.19.542-3.687.364-5.206,0s-4.344-1.706-5.837-1.866-4.4-.418-5.126-.622a2.066,2.066,0,0,1-1.653-2.017,4.52,4.52,0,0,1,.551-2.568l1.173.071,6.912.444.16.009,3.527,1.262c1.128.391,3.483.755,5.029,2.194a4.737,4.737,0,0,1,.622.693l.009.009A2.122,2.122,0,0,1,239.739,318.017Z" transform="translate(-202.96 -177.945)" fill="#7f391b"/>
        <path id="Path_4806" data-name="Path 4806" d="M240.338,316.6c-1.128-.968-3.492-1.688-5.419-2.186-1.946-.506-3.838-1.111-3.838-1.111s-.044-.373-.08-.862l.16.009,3.527,1.262c1.128.391,3.483.755,5.029,2.194A4.742,4.742,0,0,1,240.338,316.6Z" transform="translate(-204.047 -178.01)" fill="#934b32"/>
        <path id="Path_4807" data-name="Path 4807" d="M239.74,318.013a1.125,1.125,0,0,1-.64.915c-1.19.542-3.687.364-5.206,0s-4.344-1.706-5.837-1.866-4.4-.418-5.126-.622a2.066,2.066,0,0,1-1.652-2.017,4.52,4.52,0,0,1,.551-2.568l1.173.071-.036.373s-1.084,1.5-.364,2.639,3.412.968,5.055,1.164,4,1.528,6.272,1.919,5,.72,5.8,0Z" transform="translate(-202.96 -177.945)" fill="#682c17"/>
        <path id="Path_4808" data-name="Path 4808" d="M234.368,266.488c-.284,1.155-.515,2.283-.711,3.367a.285.285,0,0,0-.009.062c-.187,1.066-.338,2.088-.48,3.047-.009.036-.009.062-.018.1-.018.107-.044.275-.08.524s-.071.489-.107.72c-.3,1.963-.853,6.015-1.333,11.523a.585.585,0,0,0-.009.124c-.2,1.83-.364,4.309-.506,6.939-.036.6-.071,1.217-.1,1.839-.169,3.438-.3,6.948-.382,9.515a1.792,1.792,0,0,1-.951,1.528,3.228,3.228,0,0,1-1.5.4,10.851,10.851,0,0,1-3.7-.489,7.83,7.83,0,0,1-2.079-1.057,1.97,1.97,0,0,1-.791-1.661c.062-2.177.2-7.943-.036-13.709-.284-7.312-.853-21.074-.853-21.074l2.576-23.073,4.789-1.066c-.249-1.342-.515-2.879-.7-3.962-.142-.835-.24-1.4-.24-1.4h9.373s.009.133.018.391C236.66,241.532,237.148,255.338,234.368,266.488Z" transform="translate(-202.901 -169.781)" fill="#3a3a3a"/>
        <path id="Path_4809" data-name="Path 4809" d="M235.991,266.537c-.284,1.155-.515,2.283-.711,3.367.089-.791.951-8.414,1.342-12.3.409-4.113-.258-16.96-.258-16.96s.817-.693,1.8-1.519C238.283,241.581,238.772,255.387,235.991,266.537Z" transform="translate(-204.524 -169.83)" fill="#595959" opacity="0.5"/>
        <path id="Path_4810" data-name="Path 4810" d="M230.277,242.418a143.622,143.622,0,0,1-3.429,26.964c-1.946,8.262-2.345,24.734-2.363,36.479a7.831,7.831,0,0,1-2.079-1.057,1.97,1.97,0,0,1-.791-1.661c.062-2.177.2-7.943-.036-13.709-.284-7.312-.853-21.074-.853-21.074l2.576-23.073,4.789-1.066c-.249-1.342-.515-2.879-.7-3.962Z" transform="translate(-202.901 -169.958)" fill="#2d2d2d"/>
        <path id="Path_4811" data-name="Path 4811" d="M224.176,243.844a105.149,105.149,0,0,1-5.5,35.067v.018c-1.173,2.932-2.079,5.3-2.328,6.308-.524,2.07-2.9,22.851-3.465,27.87a5.43,5.43,0,0,1-.791,2.3,4.326,4.326,0,0,1-4.353,2.337,10.345,10.345,0,0,1-1.892-.373,13.948,13.948,0,0,1-2.417-.977,1.819,1.819,0,0,1-1-1.679c.16-5.375.862-28.954,1.306-31.9.5-3.323,2.541-10.572,3.5-23.872a14.336,14.336,0,0,0-.6-5.695A15.245,15.245,0,0,1,206.5,244s.6.222,1.395.524c-.027-1.262-.08-1.83-.08-1.83l.453.009,16.41.346Z" transform="translate(-200.86 -170.229)" fill="#3a3a3a"/>
        <path id="Path_4812" data-name="Path 4812" d="M213.55,253.795c.489,4.673-4.842,25.436-5.4,30.767s-2.292,32.81-2.292,32.81h-.009a13.948,13.948,0,0,1-2.417-.977,1.819,1.819,0,0,1-1-1.679c.16-5.375.862-28.954,1.306-31.9.5-3.323,2.541-10.572,3.5-23.872a14.336,14.336,0,0,0-.6-5.695A15.245,15.245,0,0,1,206.5,244s.6.222,1.395.524c-.027-1.262-.08-1.83-.08-1.83l.453.009c2.976,1.644,5.5,3.216,5.5,3.216A27.71,27.71,0,0,0,213.55,253.795Z" transform="translate(-200.86 -170.229)" fill="#2d2d2d"/>
        <path id="Path_4813" data-name="Path 4813" d="M206.865,243.011a10.085,10.085,0,0,0-.261,1.278.625.625,0,0,0,.262.611,18,18,0,0,0,3.539,1.684,18.314,18.314,0,0,0,7.543.8c.927-.085,9.99-2.085,15.406-5.512a4.059,4.059,0,0,0,1.807-4.1l-.005-.032C234.975,236.673,206.865,243.011,206.865,243.011Z" transform="translate(-201.324 -169.663)" fill="#845424"/>
        <path id="Path_4814" data-name="Path 4814" d="M241.1,209.883a9.736,9.736,0,0,1-1.146.8c-.018,0-.027.009-.044.018a.757.757,0,0,0-.124.08,20.63,20.63,0,0,1-6.583,2.141c-.029,1-.058,2.011-.087,3.02a33.2,33.2,0,0,0,.492,6.726c.332,1.883.73,4.193.99,5.864.515,3.314-.382,5.722-2.035,6.708v.009a.067.067,0,0,0-.036.018,45.11,45.11,0,0,1-14.748,5.411,15.888,15.888,0,0,1-1.59.213,13.77,13.77,0,0,1-3.421-.142,11.047,11.047,0,0,1-1.386-.3l-.426-.133a5.985,5.985,0,0,1-1.432-.661c-2.166-1.38-2.335-2.429-2.486-3.657-.124-1.066,1.288-6.415,1.519-8.209.062-.453.1-.729.1-.729.018-.133.036-.275.053-.409a10.694,10.694,0,0,0,.044-1.821.372.372,0,0,0-.009-.062,4.8,4.8,0,0,0-.2-1.137c-.036-.107-.071-.213-.115-.329a.033.033,0,0,0-.009-.027c-.009-.036-.027-.08-.036-.124-2.159-.977-4.035-3.53-6.114-8.265-2.017-4.593-1.784-14.23-1.135-18.042a8.243,8.243,0,0,1,.3-1.288,9.7,9.7,0,0,1,2.7-3.332v-.009a31.023,31.023,0,0,1,3.643-2.772c.044-.027.08-.053.124-.08a28.3,28.3,0,0,1,2.79-1.617c.942-.471,2.141-1.013,3.838-1.679.6-.24,1.226-.453,1.857-.649,1.164-.355,2.354-.649,3.563-.9,1.857-.391,3.74-.693,5.544-1.039q.466,0,.933.027a13.222,13.222,0,0,1,10.777,7.383c1.715,3.412,4.1,8.6,4.611,11.994C242.428,207,242.143,208.826,241.1,209.883Z" transform="translate(-200.662 -163.623)" fill="#fff"/>
        <path id="Path_4815" data-name="Path 4815" d="M229.483,213.192a35.776,35.776,0,0,1-10.066,6.743,22.633,22.633,0,0,1-8.982,1.635,3.742,3.742,0,0,1-1.83-.16c-1.262-.586-3.124-2.662-4.9-8.245-1.471-4.62-1.016-12.351-.215-17.21a10.393,10.393,0,0,1,7.027-5.268v-.005a8.778,8.778,0,0,0,4.853-.175,5.778,5.778,0,0,1,4.035.136,29.468,29.468,0,0,0,3.141,1.111l1.182.862.8,12.643,1.368-3.172-1.048-10.75-4.025-5.144-4.442-.533c-.631.2-1.253.409-1.857.649a35.467,35.467,0,0,0-5.3,2.476l-.116.069q-.217.129-.426.259c-.162.1-.324.2-.483.3l-.3.189c-.044.027-.08.053-.124.08a31.022,31.022,0,0,0-3.643,2.772v.009a9.7,9.7,0,0,0-2.7,3.332c-.023.066-.047.14-.071.225a9.952,9.952,0,0,0-.231,1.063l.005,0c-.651,3.818-.886,13.445,1.13,18.04,2.079,4.735,3.955,7.288,6.114,8.265,0,0,11.345,1.581,21.5-10.19C229.759,213.2,229.626,213.192,229.483,213.192Z" transform="translate(-200.663 -163.866)" fill="#e2e2e2" opacity="0.39"/>
        <path id="Path_4816" data-name="Path 4816" d="M217.289,178.865v5s5.111,3.688,7.825,3.154c1.168-.23,1.781-1.724,1.537-3.834l-2.47-.5Z" transform="translate(-202.517 -163.108)" fill="#edcdab"/>
        <path id="Path_4817" data-name="Path 4817" d="M226.672,187.24l2.026,2.717s.991-3.4-.953-5.493c-1.891-2.035-1.971-.277-1.971-.277S227.564,186.255,226.672,187.24Z" transform="translate(-203.464 -163.623)" fill="#fff"/>
        <path id="Path_4818" data-name="Path 4818" d="M231.206,170.479a28.869,28.869,0,0,1-.448,8c-.864,3.824-1.126,4.687-2.667,5.366s-2.929.753-5.52-.912a13.036,13.036,0,0,1-4.009-4.379s-.37.242-1.3-.8a5.585,5.585,0,0,1-1.727-4.671,15.475,15.475,0,0,1,2.282-7.911c1.727-2.9,7.031-1.973,9.436-.74S230.748,168,231.206,170.479Z" transform="translate(-202.322 -161.367)" fill="#ffe1bd"/>
        <path id="Path_4819" data-name="Path 4819" d="M233.2,170.428c-2.648,4.682-9.249,1.6-9.249,1.6-.489,2.035-1.91,2.221-2.594,2.594s-.826,2.346-.826,2.346h-.622a14.173,14.173,0,0,0-.338-2.967,1.749,1.749,0,0,0-3.083-.3c-.835,1.3.124,2.745.675,3.82a4.9,4.9,0,0,1-.169,2.417,8.116,8.116,0,0,1-1.679-3.03,20.979,20.979,0,0,1,0-10.857,4.937,4.937,0,0,1,.542-1.315c2.026-3.421,7.8-4.087,10.066-3.314,1.955.666,6.8,2.87,7.7,6A3.811,3.811,0,0,1,233.2,170.428Z" transform="translate(-202.218 -161.13)" fill="#713e23"/>
        <path id="Path_4820" data-name="Path 4820" d="M235.738,276.663q-.053.373-.107.72Q235.684,276.956,235.738,276.663Z" transform="translate(-204.563 -174.019)" fill="#3a3a3a"/>
        <path id="Path_4821" data-name="Path 4821" d="M235.859,275.963c-.009.036-.009.062-.018.1C235.85,276,235.859,275.963,235.859,275.963Z" transform="translate(-204.587 -173.941)" fill="#3a3a3a"/>
        <path id="Path_4822" data-name="Path 4822" d="M212.641,209.41a31.672,31.672,0,0,1-.873-7.08c.148-2.814,1.7-.3,1.851,2a54.346,54.346,0,0,0,1.5,7.256" transform="translate(-201.9 -165.587)" fill="#efefef" opacity="0.39"/>
        <path id="Path_4823" data-name="Path 4823" d="M217.177,183.915a4.786,4.786,0,0,0-.555,1.034,10.054,10.054,0,0,0-.354,1.16,19.5,19.5,0,0,0,8.446,5.029l.039-3.524S219.719,186.933,217.177,183.915Z" transform="translate(-202.403 -163.672)" fill="#fff"/>
        <path id="Path_4824" data-name="Path 4824" d="M220.384,213.587s-2.106-.213-6.077,1.484a23.909,23.909,0,0,1-1.555-4.762.674.674,0,0,1,.08-.16c1.111-1.777,7.1-.666,7.1-.666Z" transform="translate(-202.011 -166.486)" fill="#ffe1bd"/>
        <path id="Path_4825" data-name="Path 4825" d="M236.233,205.917c-1.173.027-2.736.213-4.131.4.107-.338.241-4.585,3.429-4.958.267,1.377.453,2.621.569,3.465.027.2.044.364.062.515s.036.267.044.364C236.224,205.837,236.233,205.917,236.233,205.917Z" transform="translate(-204.17 -165.618)" fill="#ffe1bd"/>
        <path id="Path_4826" data-name="Path 4826" d="M234,216.619a21.261,21.261,0,0,1-1.421,1.866v.009a37.788,37.788,0,0,1-7.17,6.574c-.871.622-1.812,1.235-2.825,1.821-.062.036-.124.071-.178.107a16.269,16.269,0,0,0-8.014,12.536,11.868,11.868,0,0,0-.027,3.474c.409,1.111,1.8,1.466,2.621,1.581a13.77,13.77,0,0,1-3.421-.142,11.047,11.047,0,0,1-1.386-.3l-.426-.133a6.062,6.062,0,0,1-1.439-.666c-2.159-1.377-2.328-2.425-2.479-3.652-.124-1.066,1.288-6.415,1.519-8.209.062-.453.1-.728.1-.728a10.939,10.939,0,0,0,.1-2.23.372.372,0,0,0-.009-.062,4.8,4.8,0,0,0-.2-1.137c-.036-.107-.071-.213-.116-.329a.033.033,0,0,0-.009-.027c-.009-.036-.027-.08-.036-.124,0,0,7.036.977,14.988-4.362a32.316,32.316,0,0,0,6.512-5.828s.116.009.3.009A21.41,21.41,0,0,0,234,216.619Z" transform="translate(-201.461 -167.32)" fill="#ededed"/>
        <path id="Path_4827" data-name="Path 4827" d="M209.346,231.83s-3.167,8.653-3.056,10.874,7.1,3.438,7.1,3.438L210.4,238.15Z" transform="translate(-201.29 -169.017)" fill="#ededed"/>
        <path id="Path_4828" data-name="Path 4828" d="M232.736,193.429s.448-.555,1.391.722,4.331,9.218,4.387,10.938-10.162.833-10.162.833a73.466,73.466,0,0,1,7.464-.907S234.9,196.372,232.736,193.429Z" transform="translate(-203.751 -164.72)" fill="#efefef" opacity="0.39"/>
        <path id="Path_4829" data-name="Path 4829" d="M214.389,215.628s-1.1,1.262-.873,2,1.444-.41,4.145-1,10.477-.479,10.477-.479-6.271-1.389-7.57-1.314l-.1-.692A12.261,12.261,0,0,0,214.389,215.628Z" transform="translate(-202.093 -167.043)" fill="#e2e2e2" opacity="0.39"/>
        <path id="Path_4830" data-name="Path 4830" d="M225.813,188.038l-.039,3.524,1.217,1.123,1.707-.546v-1.709l-2.026-2.717A1.432,1.432,0,0,1,225.813,188.038Z" transform="translate(-203.464 -164.095)" fill="#3a3a3a"/>
        <path id="Path_4831" data-name="Path 4831" d="M227.48,206.042c-.142-6.93-.338-12.8-.338-12.8l1.706-.551c.569,2.6,1.368,7.534,2.141,12.74C230.989,205.429,229.541,205.66,227.48,206.042Z" transform="translate(-203.616 -164.651)" fill="#3a3a3a"/>
        <path id="Path_4832" data-name="Path 4832" d="M233.5,227.387l-1.732,4.54a.374.374,0,0,1-.6.16l-3.225-2.665a1.33,1.33,0,0,1-.48-1.1c.053-.88.1-1.955.124-3.172.027-1.066.044-2.248.044-3.5v-.009c.213-.16.426-.32.64-.5.2-.151.394-.327.591-.489.4-.335.838-.718,1.3-1.14.25-.235.5-.458.75-.708.142-.124.284-.275.426-.418.24-.24.471-.489.711-.746.1-.1.2-.2.284-.3.169,1.2.329,2.337.471,3.385.382,2.834.675,5,.782,5.864A1.63,1.63,0,0,1,233.5,227.387Z" transform="translate(-203.653 -167.401)" fill="#3a3a3a"/>
        <path id="Path_4833" data-name="Path 4833" d="M232.827,220.724a38.157,38.157,0,0,1-5.215,4.424c.027-1.066.044-2.248.044-3.5v-.009c.213-.16.426-.32.64-.5.862-.786,1.759-1.457,2.639-2.337.142-.124.284-.275.426-.418.24-.24.471-.489.711-.746.1-.1.2-.2.284-.3C232.525,218.538,232.685,219.676,232.827,220.724Z" transform="translate(-203.669 -167.401)" fill="#ededed" style="mix-blend-mode: color-burn;isolation: isolate"/>
        <path id="Path_4834" data-name="Path 4834" d="M233.2,170.881c-2.648,4.682-9.249,1.6-9.249,1.6-.489,2.035-1.91,2.221-2.594,2.594s-.826,2.345-.826,2.345h-.622a14.173,14.173,0,0,0-.338-2.967,1.749,1.749,0,0,0-3.083-.3c-.835,1.3.124,2.745.675,3.82a4.9,4.9,0,0,1-.169,2.417,8.116,8.116,0,0,1-1.679-3.03,20.979,20.979,0,0,1,0-10.857,4.937,4.937,0,0,1,.542-1.315,32.389,32.389,0,0,0,7.641,4.94c4.149,1.741,7.365,1.368,8.4.48a4.038,4.038,0,0,0,1.715-2.728l.009-.009A3.811,3.811,0,0,1,233.2,170.881Z" transform="translate(-202.218 -161.582)" fill="#442312"/>
      </g>
      <g id="Group_1922" data-name="Group 1922" transform="translate(77.42 182.582)">
        <path id="Path_4835" data-name="Path 4835" d="M132.552,243.054q.053-.347.107-.72Q132.605,242.627,132.552,243.054Z" transform="translate(-132.552 -241.712)" fill="#442312"/>
        <path id="Path_4836" data-name="Path 4836" d="M132.762,241.732c.009-.036.009-.062.018-.1C132.78,241.634,132.771,241.67,132.762,241.732Z" transform="translate(-132.575 -241.634)" fill="#442312"/>
      </g>
      <g id="Group_1923" data-name="Group 1923" transform="translate(196.481 329.665)">
        <path id="Path_4837" data-name="Path 4837" d="M306.362,435.126a.226.226,0,0,0,0-.387l-15.542-9.559c-.017-.009-.017-.017-.034-.026a.13.13,0,0,0-.035-.026l-.093-.06c-.026-.017-.052-.026-.077-.043a1.571,1.571,0,0,0-.477-.128,1.711,1.711,0,0,0-.929.179l-2.353-1.467a4.928,4.928,0,0,0,2.046-3.633l.06-1.953c.1-3.607-4.8-6.685-10.957-6.864-6.114-.179-11.162,2.558-11.333,6.139l-.008-.017v.1l-.06,1.936v.009l-.009.307.009-.009c.171,3.479,4.971,6.387,10.957,6.566a16.645,16.645,0,0,0,6.856-1.177.823.823,0,0,0,.119.128,1.43,1.43,0,0,0,.154.094l3.121,1.944a2.257,2.257,0,0,0,.119.972,1.578,1.578,0,0,0,.512.7,1.145,1.145,0,0,0,.264.171l13.294,8.171a.828.828,0,0,0,.856.011C303.684,436.7,305.6,435.575,306.362,435.126ZM277.614,423.2c-5.176-.154-9.3-2.737-9.218-5.781a5.171,5.171,0,0,1,1.126-1.91,3.324,3.324,0,0,0-.742,1.961,3.251,3.251,0,0,0,.025.5c.009.043.018.076.026.119a2.589,2.589,0,0,0,.085.367l.052.153a2.174,2.174,0,0,0,.136.324c.026.052.043.1.068.154.06.111.128.221.2.332.034.043.051.077.085.119a5.035,5.035,0,0,0,.332.426,1.2,1.2,0,0,0,.111.111c.085.094.179.2.282.291a2.684,2.684,0,0,0,.238.2.94.94,0,0,0,.137.12,9.839,9.839,0,0,0,3.062,1.577,14.575,14.575,0,0,0,4.05.673c4.988.146,9.107-2.063,9.192-4.928.052-1.816-1.526-3.462-3.956-4.46-.043-.017-.077-.034-.12-.051-.256-.094-.52-.2-.792-.282a7.911,7.911,0,0,1,4.954,3.5,3.324,3.324,0,0,1,.213,1.254C287.071,421.009,282.8,423.355,277.614,423.2Z" transform="translate(-266.563 -407.628)" fill="#076d6d" opacity="0.5"/>
        <path id="Path_4838" data-name="Path 4838" d="M289.286,412.4l-2.636-2.74-7.605-1.881-7.7,1.43-2.792,2.58-.727,1.609,1.1.386s1.3-5.232,10.089-4.973,9.779,5.558,9.779,5.558l1.123-.321Z" transform="translate(-266.704 -407.252)" fill="#dbdbdb"/>
        <path id="Path_4839" data-name="Path 4839" d="M289.814,415.155a6.628,6.628,0,0,0-2.21-2.667,3.821,3.821,0,0,1,.762,2.34c-.092,3.165-4.543,5.6-9.939,5.442s-9.7-2.852-9.6-6.017a3.824,3.824,0,0,1,.9-2.291,6.441,6.441,0,0,0-2.473,2.774l-.267-.626-.064,2.12v.008l-.01.325.014-.017c.171,3.626,5.173,6.659,11.411,6.843,6.416.188,11.706-2.709,11.817-6.471l.06-2.036Z" transform="translate(-266.602 -407.718)" fill="#ededed"/>
        <path id="Path_4840" data-name="Path 4840" d="M278.8,407.194c-6.416-.188-11.706,2.709-11.817,6.472a4.146,4.146,0,0,0,.1,1.022c.741,3.3,5.491,5.961,11.318,6.132s10.724-2.2,11.658-5.456a4.108,4.108,0,0,0,.158-1.015C290.331,410.586,285.22,407.383,278.8,407.194Zm-.369,12.543c-5.4-.158-9.7-2.852-9.6-6.017a3.824,3.824,0,0,1,.9-2.291c1.575-1.966,5.049-3.269,9.041-3.152s7.383,1.622,8.84,3.678a3.82,3.82,0,0,1,.762,2.34C288.282,417.46,283.832,419.9,278.435,419.737Z" transform="translate(-266.61 -407.185)" fill="#81c5e8"/>
        <path id="Path_4841" data-name="Path 4841" d="M278.8,407.194c-6.416-.188-11.706,2.709-11.817,6.472a4.146,4.146,0,0,0,.1,1.022c.741,3.3,5.491,5.961,11.318,6.132s10.724-2.2,11.658-5.456a4.108,4.108,0,0,0,.158-1.015C290.331,410.586,285.22,407.383,278.8,407.194Zm-.369,12.543c-5.4-.158-9.7-2.852-9.6-6.017a3.824,3.824,0,0,1,.9-2.291c1.575-1.966,5.049-3.269,9.041-3.152s7.383,1.622,8.84,3.678a3.82,3.82,0,0,1,.762,2.34C288.282,417.46,283.832,419.9,278.435,419.737Z" transform="translate(-266.61 -407.185)" fill="#fff"/>
        <path id="Path_4842" data-name="Path 4842" d="M293.9,423.938l-.222.33h0l-1,1.474-.255.378-4.365-2.723h0a.756.756,0,0,1-.158-.1.94.94,0,0,1-.3-.418,1.149,1.149,0,0,1-.067-.269h0a1.537,1.537,0,0,1,.145-.864,1.474,1.474,0,0,1,.748-.739,1,1,0,0,1,.495-.077.845.845,0,0,1,.283.079.28.28,0,0,1,.046.024l.059.037a.118.118,0,0,1,.021.013Z" transform="translate(-268.901 -408.718)" fill="#ededed"/>
        <path id="Path_4843" data-name="Path 4843" d="M294.018,423.938l-.222.33h0l-5.254-3.261a1,1,0,0,1,.495-.077.845.845,0,0,1,.283.079.279.279,0,0,1,.046.024l.059.037a.116.116,0,0,1,.02.013Z" transform="translate(-269.015 -408.718)" fill="#fff"/>
        <path id="Path_4844" data-name="Path 4844" d="M292.685,425.954l-.255.379-4.365-2.723h0a.756.756,0,0,1-.158-.1.94.94,0,0,1-.3-.418,1.146,1.146,0,0,1-.068-.269Z" transform="translate(-268.903 -408.93)" fill="#dbdbdb"/>
        <path id="Path_4845" data-name="Path 4845" d="M308.274,431.829l-.634,1.117-1.629,2.871-13.287-8.211,0,0h0a1.363,1.363,0,0,1-.274-.172,1.643,1.643,0,0,1-.529-.729,2.543,2.543,0,0,1,.133-1.976,2.834,2.834,0,0,1,.449-.673l0,0a2.07,2.07,0,0,1,1.716-.745,1.437,1.437,0,0,1,.493.137.469.469,0,0,1,.082.042l.1.065a.191.191,0,0,1,.037.024c.009.006.017.015.027.021Z" transform="translate(-269.376 -408.983)" fill="#394356"/>
        <path id="Path_4846" data-name="Path 4846" d="M308.365,431.829l-.634,1.117-1.6-.48-13.547-8.406,0-.005,0,0a2.07,2.07,0,0,1,1.716-.745,1.438,1.438,0,0,1,.493.137.469.469,0,0,1,.082.042l.1.065a.191.191,0,0,1,.037.024c.009.006.017.015.027.021Z" transform="translate(-269.466 -408.983)" fill="#485366"/>
        <path id="Path_4847" data-name="Path 4847" d="M310.649,435.758a2.115,2.115,0,0,1-2.657,1.285h0a1.389,1.389,0,0,1-.276-.172,1.666,1.666,0,0,1-.527-.729,2.542,2.542,0,0,1,.132-1.977,2.287,2.287,0,0,1,2.167-1.421,1.45,1.45,0,0,1,.493.137c.028.012.056.028.081.042l.1.066a.17.17,0,0,1,.036.024A2.2,2.2,0,0,1,310.649,435.758Z" transform="translate(-271.079 -410.036)" fill="#6a7384"/>
        <path id="Path_4848" data-name="Path 4848" d="M288.343,414.509c-.088,2.989-4.376,5.288-9.577,5.134s-9.346-2.7-9.258-5.688,4.376-5.288,9.577-5.134S288.431,411.52,288.343,414.509Z" transform="translate(-266.891 -407.367)" fill="#fff" opacity="0.2"/>
        <path id="Path_4849" data-name="Path 4849" d="M284.232,409.862c-9.38.206-12.093,4.83-12.877,7.441a4.211,4.211,0,0,1-1.849-3.349c.09-2.987,4.377-5.284,9.579-5.133A14.84,14.84,0,0,1,284.232,409.862Z" transform="translate(-266.891 -407.367)" fill="#fff" opacity="0.2"/>
        <path id="Path_4850" data-name="Path 4850" d="M287.913,415.112c-.083,2.831-4.146,5.01-9.077,4.865s-8.857-2.557-8.773-5.393c0-.083.007-.163.018-.245.275,2.658,4.057,4.851,8.756,4.992,4.782.144,8.748-1.9,9.059-4.609A2.374,2.374,0,0,1,287.913,415.112Z" transform="translate(-266.953 -407.983)" fill="#fff" opacity="0.4"/>
      </g>
      <g id="Group_1939" data-name="Group 1939" transform="translate(37.758 0)">
        <g id="Group_1925" data-name="Group 1925" transform="translate(147.235 83.253)">
          <g id="Group_1924" data-name="Group 1924">
            <path id="Path_4851" data-name="Path 4851" d="M286.135,132.628V159.12a2.172,2.172,0,0,1-.936,1.792c-.027.013-.053.04-.079.052l-8.66,5.339-17.886,11.018a.832.832,0,0,1-.935-.013l-3.506-2.162a1.022,1.022,0,0,1-.5-.883V148.654A2.852,2.852,0,0,1,255,146.2l26.282-16.212a1.076,1.076,0,0,1,1.107-.012l3.334,2.029a.569.569,0,0,1,.119.066A.669.669,0,0,1,286.135,132.628Z" transform="translate(-253.632 -129.831)" fill="#ffd05a"/>
            <path id="Path_4852" data-name="Path 4852" d="M286.588,132.895v26.492a2.172,2.172,0,0,1-.936,1.792c-.027.013-.053.04-.079.052l-8.66,5.339-17.886,11.018a.832.832,0,0,1-.936-.013.867.867,0,0,1-.4-.725v-25.82a2.738,2.738,0,0,1,1.278-2.306l26.611-16.4a.639.639,0,0,1,.594-.053.57.57,0,0,1,.119.066A.669.669,0,0,1,286.588,132.895Z" transform="translate(-254.086 -130.098)" fill="#ffdc79"/>
          </g>
          <path id="Path_4853" data-name="Path 4853" d="M274.463,151.514l1.772,2.65a.4.4,0,0,0,.481.152l3.842-1.485a.4.4,0,0,1,.482.6l-3.062,4.613a.4.4,0,0,0-.06.3l.789,4.185a.4.4,0,0,1-.393.478l-4.107.024a.407.407,0,0,0-.291.126l-3.752,3.968a.4.4,0,0,1-.691-.339l.66-4.2a.4.4,0,0,0-.235-.432l-2.905-1.287a.4.4,0,0,1-.062-.7l4.619-3.127a.4.4,0,0,0,.149-.187l2.055-5.257A.4.4,0,0,1,274.463,151.514Z" transform="translate(-255.096 -132.23)" fill="#fff"/>
        </g>
        <g id="Group_1928" data-name="Group 1928" transform="translate(34.969 191.551)">
          <g id="Group_1926" data-name="Group 1926">
            <path id="Path_4854" data-name="Path 4854" d="M149.178,253.613v17.858a1.463,1.463,0,0,1-.631,1.208c-.018.009-.036.027-.053.036l-5.837,3.6L130.6,283.74a.562.562,0,0,1-.631-.009l-2.363-1.457a.689.689,0,0,1-.338-.6V264.417a1.923,1.923,0,0,1,.924-1.653l17.716-10.928a.726.726,0,0,1,.746-.009L148.9,253.2a.361.361,0,0,1,.08.044A.45.45,0,0,1,149.178,253.613Z" transform="translate(-127.269 -251.729)" fill="#73aae0"/>
            <path id="Path_4855" data-name="Path 4855" d="M149.484,253.793v17.858a1.464,1.464,0,0,1-.631,1.208c-.018.009-.036.027-.053.036l-5.837,3.6-12.056,7.427a.562.562,0,0,1-.631-.009.584.584,0,0,1-.267-.489v-17.4a1.846,1.846,0,0,1,.862-1.555l17.938-11.052a.431.431,0,0,1,.4-.036.359.359,0,0,1,.08.044A.45.45,0,0,1,149.484,253.793Z" transform="translate(-127.575 -251.909)" fill="#acd3ff"/>
          </g>
          <g id="Group_1927" data-name="Group 1927" transform="translate(6.568 9.65)">
            <ellipse id="Ellipse_125" data-name="Ellipse 125" cx="3.439" cy="1.902" rx="3.439" ry="1.902" transform="matrix(0.597, -0.802, 0.802, 0.597, 2.207, 5.519)" fill="#fff"/>
            <path id="Path_4856" data-name="Path 4856" d="M146.238,272.739,134.662,279.7c.013-3.194,2.59-7.319,5.788-9.241a4.763,4.763,0,0,1,4.092-.762A2.976,2.976,0,0,1,146.238,272.739Z" transform="translate(-134.662 -263.36)" fill="#fff"/>
          </g>
        </g>
        <g id="Group_1932" data-name="Group 1932" transform="translate(12.926 244.694)">
          <g id="Group_1930" data-name="Group 1930">
            <g id="Group_1929" data-name="Group 1929">
              <path id="Path_4857" data-name="Path 4857" d="M149.178,321.1v17.858a1.463,1.463,0,0,1-.631,1.207c-.018.009-.036.028-.053.036l-5.837,3.6L130.6,351.231a.563.563,0,0,1-.631-.01l-2.363-1.456a.69.69,0,0,1-.338-.6V331.908a1.924,1.924,0,0,1,.924-1.653l17.716-10.927a.726.726,0,0,1,.746-.009l2.248,1.368a.3.3,0,0,1,.08.044A.449.449,0,0,1,149.178,321.1Z" transform="translate(-105.226 -312.4)" fill="#779a0a"/>
              <path id="Path_4858" data-name="Path 4858" d="M149.484,321.284v17.858a1.463,1.463,0,0,1-.631,1.207c-.018.009-.036.028-.053.036l-5.837,3.6-12.056,7.428a.563.563,0,0,1-.631-.01.582.582,0,0,1-.267-.488v-17.4a1.843,1.843,0,0,1,.862-1.555L148.808,320.9a.428.428,0,0,1,.4-.035.3.3,0,0,1,.08.044A.449.449,0,0,1,149.484,321.284Z" transform="translate(-105.532 -312.58)" fill="#c3d600"/>
              <path id="Path_4859" data-name="Path 4859" d="M121.933,312v17.858a1.464,1.464,0,0,1-.631,1.208c-.018.009-.036.027-.053.036l-5.837,3.6-12.056,7.427a.562.562,0,0,1-.631-.009.584.584,0,0,1-.267-.489v-17.4a1.845,1.845,0,0,1,.862-1.555l17.938-11.052a.431.431,0,0,1,.4-.036.362.362,0,0,1,.08.044A.45.45,0,0,1,121.933,312Z" transform="translate(-102.458 -311.544)" fill="#c3d600" opacity="0.3"/>
            </g>
          </g>
          <g id="Group_1931" data-name="Group 1931" transform="translate(28.884 15.818)">
            <path id="Path_4860" data-name="Path 4860" d="M146.556,329.348v1.24l-5.787,6.792-5.8.442v-1.234Z" transform="translate(-134.969 -329.348)" fill="#fff"/>
            <path id="Path_4861" data-name="Path 4861" d="M140.769,338.347l5.787-6.792v6.338l-11.587,7.24v-6.345Z" transform="translate(-134.969 -329.595)" fill="#fff"/>
          </g>
        </g>
        <g id="Group_1937" data-name="Group 1937">
          <g id="Group_1935" data-name="Group 1935">
            <g id="Group_1934" data-name="Group 1934">
              <g id="Group_1933" data-name="Group 1933">
                <path id="Path_4862" data-name="Path 4862" d="M109.818,157.557v17.858a1.463,1.463,0,0,1-.631,1.208c-.018.009-.036.027-.053.036l-5.837,3.6-12.056,7.427a.562.562,0,0,1-.631-.009l-2.363-1.457a.689.689,0,0,1-.338-.6V168.361a1.923,1.923,0,0,1,.924-1.652l17.716-10.928a.726.726,0,0,1,.746-.009l2.248,1.368a.361.361,0,0,1,.08.044A.45.45,0,0,1,109.818,157.557Z" transform="translate(-87.909 -49.462)" fill="#8ba6fc"/>
                <path id="Path_4863" data-name="Path 4863" d="M110.124,157.737V175.6a1.464,1.464,0,0,1-.631,1.208c-.018.009-.036.027-.053.036l-5.837,3.6-12.056,7.427a.562.562,0,0,1-.631-.009.584.584,0,0,1-.267-.489v-17.4a1.845,1.845,0,0,1,.862-1.555l17.938-11.052a.431.431,0,0,1,.4-.036.36.36,0,0,1,.08.044A.45.45,0,0,1,110.124,157.737Z" transform="translate(-88.215 -49.642)" fill="#c9d4fe"/>
                <path id="Path_4864" data-name="Path 4864" d="M129.059,124.481v12.491a1.024,1.024,0,0,1-.441.845c-.012.006-.026.019-.037.025l-4.083,2.517-8.433,5.2a.392.392,0,0,1-.441-.006.409.409,0,0,1-.187-.342V133.032a1.293,1.293,0,0,1,.6-1.087l12.547-7.73a.3.3,0,0,1,.28-.025.251.251,0,0,1,.056.031A.315.315,0,0,1,129.059,124.481Z" transform="translate(-90.98 -45.947)" fill="#c9d4fe" opacity="0.3"/>
                <path id="Path_4865" data-name="Path 4865" d="M228.509,63.3V75.787a1.023,1.023,0,0,1-.442.845c-.012.006-.025.019-.037.025l-4.082,2.517-8.433,5.2a.4.4,0,0,1-.442-.007.407.407,0,0,1-.186-.341V71.847a1.291,1.291,0,0,1,.6-1.087l12.547-7.73a.3.3,0,0,1,.28-.025.251.251,0,0,1,.056.031A.315.315,0,0,1,228.509,63.3Z" transform="translate(-102.075 -39.121)" fill="#c9d4fe" opacity="0.3"/>
                <path id="Path_4866" data-name="Path 4866" d="M256.758,36.6V55.283a1.532,1.532,0,0,1-.66,1.264c-.018.009-.036.028-.055.037l-6.108,3.764L237.32,68.121a.587.587,0,0,1-.66-.01.61.61,0,0,1-.279-.511V49.389a1.932,1.932,0,0,1,.9-1.628L256.052,36.2a.451.451,0,0,1,.418-.036.357.357,0,0,1,.084.046A.47.47,0,0,1,256.758,36.6Z" transform="translate(-104.472 -36.125)" fill="#fff" opacity="0.1"/>
                <path id="Path_4867" data-name="Path 4867" d="M111.367,332.954v18.686a1.531,1.531,0,0,1-.66,1.264c-.019.01-.037.028-.056.037l-6.107,3.765-12.616,7.772a.587.587,0,0,1-.66-.01.612.612,0,0,1-.278-.511V345.745a1.931,1.931,0,0,1,.9-1.627l18.769-11.565a.451.451,0,0,1,.418-.037.418.418,0,0,1,.084.047A.47.47,0,0,1,111.367,332.954Z" transform="translate(-88.253 -69.186)" fill="#fff" opacity="0.1"/>
              </g>
            </g>
          </g>
          <g id="Group_1936" data-name="Group 1936" transform="translate(6.027 112.479)">
            <path id="Path_4868" data-name="Path 4868" d="M100.274,180.816l-5.213-2.082c-.491-.2-.491-.991,0-1.778s1.287-1.265,1.778-1.068l2.966,1.183,5.812-12.895a2.313,2.313,0,0,1,1.731-1.449c.591.01.774.675.409,1.485Z" transform="translate(-94.692 -162.728)" fill="#fff"/>
          </g>
        </g>
        <g id="Group_1938" data-name="Group 1938" transform="translate(137.723 4.508)">
          <path id="Path_4869" data-name="Path 4869" d="M387.06,176.355v17.857a1.462,1.462,0,0,1-.631,1.208c-.018.009-.036.028-.053.036l-5.837,3.6-12.056,7.428a.563.563,0,0,1-.631-.009l-2.363-1.458a.687.687,0,0,1-.338-.6V187.159a1.925,1.925,0,0,1,.924-1.653l17.716-10.927a.722.722,0,0,1,.746-.009l2.248,1.368a.325.325,0,0,1,.08.044A.449.449,0,0,1,387.06,176.355Z" transform="translate(-256.561 -56.067)" fill="#00e0c1"/>
          <path id="Path_4870" data-name="Path 4870" d="M387.366,176.535v17.857a1.462,1.462,0,0,1-.631,1.208c-.018.009-.036.028-.053.036l-5.837,3.6-12.056,7.428a.563.563,0,0,1-.631-.009.586.586,0,0,1-.267-.49v-17.4a1.845,1.845,0,0,1,.862-1.555l17.938-11.051a.429.429,0,0,1,.4-.036.329.329,0,0,1,.08.044A.449.449,0,0,1,387.366,176.535Z" transform="translate(-256.867 -56.247)" fill="#02f5d0"/>
          <path id="Path_4871" data-name="Path 4871" d="M409.626,181.315v21.293a1.745,1.745,0,0,1-.753,1.441c-.02.011-.042.031-.063.042l-6.96,4.291-14.375,8.856a.67.67,0,0,1-.752-.011.7.7,0,0,1-.318-.583V195.893a2.2,2.2,0,0,1,1.028-1.854l21.388-13.178a.513.513,0,0,1,.476-.043.435.435,0,0,1,.1.053A.536.536,0,0,1,409.626,181.315Z" transform="translate(-258.932 -56.771)" fill="#fff" opacity="0.2"/>
          <path id="Path_4872" data-name="Path 4872" d="M279.215,41.737V63.031a1.745,1.745,0,0,1-.753,1.441c-.021.01-.042.031-.063.042l-6.96,4.29-14.376,8.857a.67.67,0,0,1-.752-.011.7.7,0,0,1-.318-.583V56.314a2.2,2.2,0,0,1,1.028-1.853L278.41,41.283a.51.51,0,0,1,.476-.043.431.431,0,0,1,.1.053A.535.535,0,0,1,279.215,41.737Z" transform="translate(-244.384 -41.2)" fill="#fff" opacity="0.2"/>
          <path id="Path_4873" data-name="Path 4873" d="M266.146,223.722v21.292a1.747,1.747,0,0,1-.752,1.441c-.021.011-.043.032-.064.043l-6.96,4.29L244,259.645a.67.67,0,0,1-.753-.011.7.7,0,0,1-.317-.583V238.3a2.2,2.2,0,0,1,1.027-1.854l21.388-13.178a.517.517,0,0,1,.477-.043.427.427,0,0,1,.1.053A.536.536,0,0,1,266.146,223.722Z" transform="translate(-242.926 -61.502)" fill="#fff" opacity="0.2"/>
          <path id="Path_4874" data-name="Path 4874" d="M375.435,197.079a1.488,1.488,0,1,1-1.473-1.7A1.6,1.6,0,0,1,375.435,197.079Z" transform="translate(-257.38 -58.4)" fill="#fff"/>
          <path id="Path_4875" data-name="Path 4875" d="M380.735,193.779a1.488,1.488,0,1,1-1.473-1.7A1.6,1.6,0,0,1,380.735,193.779Z" transform="translate(-257.971 -58.032)" fill="#fff"/>
          <path id="Path_4876" data-name="Path 4876" d="M386.035,190.478a1.488,1.488,0,1,1-1.473-1.7A1.6,1.6,0,0,1,386.035,190.478Z" transform="translate(-258.563 -57.663)" fill="#fff"/>
        </g>
      </g>
      <g id="Group_1943" data-name="Group 1943" transform="translate(176.463 275.554)">
        <g id="Group_1940" data-name="Group 1940" transform="translate(16.916 10.17)">
          <ellipse id="Ellipse_126" data-name="Ellipse 126" cx="8.458" cy="4.296" rx="8.458" ry="4.296" transform="translate(0 7.108)" fill="#076d6d" opacity="0.5"/>
          <path id="Path_4877" data-name="Path 4877" d="M263.071,362.563v4.3c0,2.372,3.787,4.3,8.458,4.3s8.458-1.924,8.458-4.3v-4.3Z" transform="translate(-263.071 -358.267)" fill="#efc356"/>
          <ellipse id="Ellipse_127" data-name="Ellipse 127" cx="8.458" cy="4.296" rx="8.458" ry="4.296" transform="translate(0)" fill="#ffdc79"/>
          <path id="Path_4878" data-name="Path 4878" d="M275.92,362.32c0,1.068-1.7,1.934-3.807,1.934s-3.807-.866-3.807-1.934,1.7-1.934,3.807-1.934S275.92,361.252,275.92,362.32Z" transform="translate(-263.655 -358.024)" fill="#fff"/>
        </g>
        <g id="Group_1941" data-name="Group 1941" transform="translate(0 20.341)">
          <ellipse id="Ellipse_128" data-name="Ellipse 128" cx="8.458" cy="4.296" rx="8.458" ry="4.296" transform="translate(0 7.108)" fill="#076d6d" opacity="0.5"/>
          <path id="Path_4879" data-name="Path 4879" d="M244.031,374.011v4.3c0,2.372,3.787,4.3,8.458,4.3s8.458-1.923,8.458-4.3v-4.3Z" transform="translate(-244.031 -369.715)" fill="#e83d83"/>
          <ellipse id="Ellipse_129" data-name="Ellipse 129" cx="8.458" cy="4.296" rx="8.458" ry="4.296" fill="#fe5c99"/>
          <path id="Path_4880" data-name="Path 4880" d="M251.5,370.266l6.588,4.025-9.218,1.181Z" transform="translate(-244.571 -369.297)" fill="#fff"/>
        </g>
        <g id="Group_1942" data-name="Group 1942" transform="translate(33.832)">
          <path id="Path_4881" data-name="Path 4881" d="M299.027,358.576c0,2.373-3.787,4.3-8.458,4.3s-8.458-1.923-8.458-4.3,3.786-4.3,8.458-4.3S299.027,356.2,299.027,358.576Z" transform="translate(-282.111 -347.173)" fill="#076d6d" opacity="0.5"/>
          <path id="Path_4882" data-name="Path 4882" d="M282.111,351.115v4.3c0,2.373,3.786,4.3,8.458,4.3s8.458-1.923,8.458-4.3v-4.3Z" transform="translate(-282.111 -346.819)" fill="#00e0c1"/>
          <path id="Path_4883" data-name="Path 4883" d="M299.027,350.576c0,2.373-3.787,4.3-8.458,4.3s-8.458-1.923-8.458-4.3,3.786-4.3,8.458-4.3S299.027,348.2,299.027,350.576Z" transform="translate(-282.111 -346.28)" fill="#02f5d0"/>
          <path id="Path_4884" data-name="Path 4884" d="M285.757,349.594l6.588,4.025,2.591-5.261Z" transform="translate(-282.518 -346.512)" fill="#fff"/>
        </g>
      </g>
    </g>
  </g>
</svg>
