<svg xmlns="http://www.w3.org/2000/svg" xmlns:xlink="http://www.w3.org/1999/xlink" width="369.201" height="309.479" viewBox="0 0 369.201 309.479">
  <defs>
    <linearGradient id="linear-gradient" x1="0.235" y1="-0.491" x2="1.064" y2="2.086" gradientUnits="objectBoundingBox">
      <stop offset="0" stop-color="#535a7d"/>
      <stop offset="1" stop-color="#8791c1"/>
    </linearGradient>
    <linearGradient id="linear-gradient-2" x1="14.383" y1="0.01" x2="13.536" y2="1.167" gradientUnits="objectBoundingBox">
      <stop offset="0" stop-color="#29002c"/>
      <stop offset="1" stop-color="#330065"/>
    </linearGradient>
    <linearGradient id="linear-gradient-3" x1="23.015" y1="0.5" x2="24.015" y2="0.5" gradientUnits="objectBoundingBox">
      <stop offset="0" stop-color="#290051"/>
      <stop offset="1" stop-color="#330065"/>
    </linearGradient>
    <linearGradient id="linear-gradient-4" x1="7.568" y1="0.017" x2="7.054" y2="0.85" xlink:href="#linear-gradient-3"/>
    <linearGradient id="linear-gradient-5" x1="9.853" y1="0.5" x2="10.853" y2="0.5" xlink:href="#linear-gradient-3"/>
    <linearGradient id="linear-gradient-6" x1="1.234" y1="0.732" x2="0.539" y2="0.509" xlink:href="#linear-gradient-3"/>
  </defs>
  <g id="Group_1956" data-name="Group 1956" transform="translate(-1123.298 -1265.031)">
    <g id="Group_4" data-name="Group 4" transform="translate(1123.299 1265.031)">
      <g id="Group_2" data-name="Group 2" transform="translate(0 0)">
        <path id="Path_1513" data-name="Path 1513" d="M820.35,428.586a60.406,60.406,0,0,1-1.4,8.115q-.174.823-.4,1.646A71.646,71.646,0,0,1,805.7,463.574c-.349.449-.7.9-1.064,1.347-41.423,51.367-155.215,74.315-247.306,35.935-.848-.349-1.7-.715-2.544-1.081a221.925,221.925,0,0,1-22.6-11.291c-35.4-20.337-58.467-48.108-70.44-77.341a.016.016,0,0,1-.017-.017c-.6-1.48-1.164-2.96-1.713-4.457-18.658-50.519-4.639-104.5,35.686-131.618q.7-.5,1.447-.948a102.555,102.555,0,0,1,35.037-14.2c2.993-.632,5.92-1.1,8.813-1.43.549-.083,1.1-.133,1.646-.183,42.8-4.324,74.531,21.651,100.456,49.122.4.416.781.831,1.164,1.23,8.813,9.379,16.928,18.907,24.611,27.388.366.416.748.831,1.114,1.247,17.66,19.389,32.909,33.025,48.39,26.656C775.152,340.586,827.9,355.169,820.35,428.586Z" transform="translate(-451.872 -257.815)" fill="#e4ebf7"/>
        <path id="Path_1514" data-name="Path 1514" d="M626.6,281.128c-19.286-26.041-48.3,2.217-30.922,27.716S673.391,344.318,626.6,281.128Z" transform="translate(-360.083 -249.226)" fill="#e4ebf7"/>
      </g>
      <g id="Group_3" data-name="Group 3" transform="translate(8.144 0.474)">
        <path id="Path_1515" data-name="Path 1515" d="M815.706,377.362q-.175.823-.4,1.646c-36.683-12.222-100.04-19.556-204.586,3.027-65.385,14.1-114.973,5.6-147.366-25.276-1.68-1.613-3.293-3.259-4.856-4.955a.016.016,0,0,1-.017-.017c-.6-1.48-1.164-2.96-1.713-4.457a105.685,105.685,0,0,0,7.732,8.215c31.977,30.481,81.05,38.845,145.853,24.86C715.084,357.806,778.74,365.123,815.706,377.362Z" transform="translate(-456.77 -198.95)" fill="#fff"/>
        <path id="Path_1516" data-name="Path 1516" d="M764.674,387.957c-.349.449-.7.9-1.064,1.347-35.27-17.111-87.784-26.274-157.46,4.573-34.206,15.149-64.138,25.06-89.846,31.362-.848-.349-1.7-.715-2.544-1.081,26.091-6.252,56.638-16.247,91.725-31.795C675.926,361.151,729.055,370.563,764.674,387.957Z" transform="translate(-418.992 -182.672)" fill="#fff"/>
        <path id="Path_1517" data-name="Path 1517" d="M652.518,330.784c-14.334,14.085-34.505,25.725-62.841,30.115a106.274,106.274,0,0,1-15.964,1.264c-18.957,0-35.835-5.687-50.336-16.962-24.827-19.306-38.2-51.716-45.148-76.643q.7-.5,1.447-.948c6.851,24.744,20.055,57.1,44.715,76.277,18.109,14.068,39.976,19.24,65.036,15.365,27.97-4.34,47.841-15.831,61.976-29.716C651.77,329.952,652.152,330.368,652.518,330.784Z" transform="translate(-442.544 -251.796)" fill="#fff"/>
        <path id="Path_1518" data-name="Path 1518" d="M608.736,308.453c-10.975,15.4-27.039,28.253-50.186,28.835h-1.064a37.028,37.028,0,0,1-27.138-11.557c-15.149-15.3-21.9-43.518-24.877-67.447.549-.083,1.1-.133,1.646-.183,2.927,23.663,9.545,51.467,24.411,66.466A35.606,35.606,0,0,0,558.5,335.624c22.632-.582,38.346-13.237,49.072-28.4C607.971,307.638,608.353,308.054,608.736,308.453Z" transform="translate(-424.487 -258.1)" fill="#fff"/>
      </g>
    </g>
    <g id="Group_1528" data-name="Group 1528" transform="translate(1195.294 1284.905)">
      <path id="Path_4025" data-name="Path 4025" d="M470.852,1667.064c0,3.757-78.552,9.291-135.779,2.98-57.923-6.388-90.166-1.084-90.166-4.84s53.207-6.763,111.481-6.763S470.852,1663.307,470.852,1667.064Z" transform="translate(-244.906 -1383.306)" fill="#c7b299"/>
      <g id="Group_1521" data-name="Group 1521" transform="translate(50.101 51.973)">
        <path id="Path_4026" data-name="Path 4026" d="M447.3,1475.737h2.322l-1.547-20.1Z" transform="translate(-399.183 -1330.893)" fill="#2c1919"/>
        <path id="Path_4027" data-name="Path 4027" d="M382.927,1405.657a59.036,59.036,0,0,1-1.845-7.225c-2.412.013-5.03.148-7.091,1.353.253.77,2.377,7.209,2.377,7.954,0,15.635,2.02,11.019,4.774,12.177a3.225,3.225,0,0,0,2.93-.447c.472-.5,3.355-.1,3.355-.4s1.182-2.385,0-4.125,3.262,1.789,3.262.448C390.689,1413.916,383.948,1408.3,382.927,1405.657Z" transform="translate(-361.449 -1301.45)" fill="#fd5e5a"/>
        <g id="Group_1520" data-name="Group 1520" transform="translate(12.415 112.468)">
          <path id="Path_4028" data-name="Path 4028" d="M392.506,1439.223v-5.5a.2.2,0,0,0-.189-.2H376.942a.2.2,0,0,0-.189.2v5.5h-3.024v-5.5a3.3,3.3,0,0,1,3.214-3.38h15.376a3.3,3.3,0,0,1,3.214,3.38v5.5Z" transform="translate(-373.728 -1430.343)" fill="#040037"/>
        </g>
        <path id="Rectangle_478" data-name="Rectangle 478" d="M0,0H49a0,0,0,0,1,0,0V24.19A13.583,13.583,0,0,1,35.413,37.773H11.752A11.752,11.752,0,0,1,0,26.021V0A0,0,0,0,1,0,0Z" transform="translate(48.996 157.862) rotate(180)" fill="#571c1c"/>
        <path id="Path_4029" data-name="Path 4029" d="M437.692,1447.03a6.594,6.594,0,0,0-4.125,6.114v31.181h7.541v-32.069A5.705,5.705,0,0,0,437.692,1447.03Z" transform="translate(-392.113 -1326.463)" fill="#794949"/>
        <path id="Path_4030" data-name="Path 4030" d="M354.02,1198.588l5.852,5.772,6.973,69.6s5.148,15.335,7.014,24.13a34.369,34.369,0,0,0-10.873,2.983c-2.849-8.686-6.522-25.473-6.522-25.473Z" transform="translate(-351.169 -1198.588)" fill="#717794"/>
        <path id="Path_4031" data-name="Path 4031" d="M405.489,1434.51s-1.047-2.343-2.154-2.247-.314,2.247-.314,2.247S404.48,1435.519,405.489,1434.51Z" transform="translate(-376.249 -1318.861)" fill="#fd5e5a"/>
        <path id="Path_4032" data-name="Path 4032" d="M383.184,1431.194s-2.094,3.859-1.475,4.478,2.6.395,2.6.395,2.47.813,3.243.04c0,0,3.793-.121,3.793-.691s-1.82-5.152-2.663-5.152-1.2,3.089-1.2,3.089-.369-2.443-1.015-3.089-1.93,3.089-1.93,3.089S384.833,1430.484,383.184,1431.194Z" transform="translate(-365.362 -1317.795)" fill="#fd5e5a"/>
      </g>
      <g id="Group_1522" data-name="Group 1522" transform="translate(85.668 116.085)">
        <path id="Path_4033" data-name="Path 4033" d="M466.852,1343.139l-16.213,8.778.819-3.792,3.447-10.312h7.874Z" transform="translate(-436.467 -1334.361)" fill="#fd5e5a"/>
        <path id="Path_4034" data-name="Path 4034" d="M421.436,1343.4c3.078-.818,16,.922,16,.922s8.63-5.209,8.476-6.669-.7-1.146-1.48-2.475a12.05,12.05,0,0,0-2.859-2.78,4.477,4.477,0,0,0-3.578-1.678c-2.095.221-7.654,4.721-9.94,4.961-.47.049-2.5.25-5.454.555Z" transform="translate(-421.436 -1330.699)" fill="#fc7575"/>
        <path id="Path_4035" data-name="Path 4035" d="M445.429,1359.9s-5.536-5.6-4.854-6.443,6.528,2.482,6.528,2.482Z" transform="translate(-431.257 -1342.341)" fill="#fd5e5a"/>
        <path id="Path_4036" data-name="Path 4036" d="M434.965,1335.8s5.684,3.6,6.441,2.659-2.22-3.1-2.22-3.1,3.228,2,3.864,1.648-2.073-2.927-2.073-2.927,3.094,2.261,4.013,1.85-1.655-4-1.655-4S434.994,1332.721,434.965,1335.8Z" transform="translate(-428.4 -1331.334)" fill="#fd5e5a"/>
      </g>
      <path id="Path_4037" data-name="Path 4037" d="M514.094,1200.323s-7.361,10.821-8.388,23.745c-.428,5.383-3.338,14.805-8.216,25.114-2.517,5.32-26.11,14.607-26.11,14.607l5.605,12.528,27.772-12.978,12.064-20.036Z" transform="translate(-361.475 -1147.508)" fill="#341102"/>
      <path id="Path_4038" data-name="Path 4038" d="M637.475,1666.461l-19.144.729,11.857-6.363-.427-5.251c1.982,0,4.053,2.19,6.055,2.19C636.382,1661.055,637.475,1666.461,637.475,1666.461Z" transform="translate(-437.112 -1381.831)" fill="#432c47"/>
      <path id="Path_4039" data-name="Path 4039" d="M583.809,1665.68l-21.375,1.51,14.416-6.867,1.123-4.746c1.982,0,2.46,1.41,4.462,1.41C583,1660.275,583.809,1665.68,583.809,1665.68Z" transform="translate(-408.341 -1381.831)" fill="#432c47"/>
      <path id="Path_4040" data-name="Path 4040" d="M609.93,1264.237c.008-.007.016-.018.024-.025C609.744,1264.2,609.759,1264.208,609.93,1264.237Z" transform="translate(-432.72 -1180.389)" fill="#fc7575"/>
      <path id="Path_4041" data-name="Path 4041" d="M318.219,1285.324c.732-.731,32.1,5.885,32.1,5.885l-7.035-49.887-6.314-30-8.92-21.6s-13.375-3.265-14.327-2.658l-2.4,38.709Z" transform="translate(-279.092 -1140.647)" fill="#26253a"/>
      <path id="Path_4042" data-name="Path 4042" d="M302.588,1643.238l-.938,5.159s3.565,6.753,7.239,10.427,8.551,3.174,8.551.047-6.359-10.945-6.359-14.7S302.588,1643.238,302.588,1643.238Z" transform="translate(-274.113 -1374.96)" fill="#4c5063"/>
      <path id="Path_4043" data-name="Path 4043" d="M353.633,1640.774l-1.407,9.536h24.231s-.782-2.345-7.817-3.752-7.425-3.85-7.425-3.85l.547-6.155-6.41-.939Z" transform="translate(-300.145 -1371.557)" fill="#4c5063"/>
      <path id="Path_4044" data-name="Path 4044" d="M334.186,1393.075l14.3,50.279-5.237,60.609h9.223l12.663-64.095-12.663-73.4Z" transform="translate(-290.859 -1233.026)" fill="#464f7c"/>
      <path id="Path_4045" data-name="Path 4045" d="M329.335,1362.443l-8.52,28.594s-13.053,42.693-15.164,67.393,0,41.584,0,41.584L294,1501.889s-6.722-51.276-4.221-68.472-.558-59.092-.558-59.092L294,1362.443Z" transform="translate(-267.718 -1230.953)" fill="url(#linear-gradient)"/>
      <path id="Path_4046" data-name="Path 4046" d="M299.791,1196.631s15.014-8.032,24.778,1.733,10.552,37.35,10.552,37.35V1267.6l1.4,14.2-36.576-4.347,4.925-48.68Z" transform="translate(-273.156 -1144.009)" fill="#e2b2c4"/>
      <path id="Path_4047" data-name="Path 4047" d="M316.9,1243.421l-23.968-50.867-15.427,5.31,5.394,45.557-10.083,51.12s39.278-3.4,44.085,1.407Z" transform="translate(-259.273 -1143.51)" fill="#7d87b7"/>
      <path id="Path_4048" data-name="Path 4048" d="M291.68,1281.182l-1.807-15.264c6.571,9.035,20.157,19.229,24.327,23.585,1.6,1.671,6.077,3.745,11.482,5.809v16.017c-10.645-3.336-21.139-6.742-23.486-7.909-2.165-1.078-7.164-6.893-11.99-14.764Z" transform="translate(-268.051 -1181.271)" fill="#5e6589" opacity="0.75"/>
      <path id="Path_4049" data-name="Path 4049" d="M350.132,1203.5s8.911,28.257,8.911,36.907,7.035,59.3,7.035,59.3H370.3l-5.863-59.3-7.242-27.13Z" transform="translate(-299.067 -1149.141)" fill="#7d87b7"/>
      <path id="Path_4050" data-name="Path 4050" d="M345.8,1192.625l11.737,51.6-2.573-36.543-2.361-2.472,1.865.419-4.679-10.107Z" transform="translate(-296.837 -1143.546)" fill="#979fc5"/>
      <path id="Path_4051" data-name="Path 4051" d="M412.066,1338.083l4.836,1.545-.95,8.846-7.3-2.251Z" transform="translate(-329.188 -1218.415)" fill="#e2b2c4"/>
      <path id="Path_4052" data-name="Path 4052" d="M277.468,1203.5s-3.894,0-4.69,15.082c-.992,18.807,17.456,45.249,22.38,47.594s47,14.46,47,14.46l3.126-13.568s-33.576-8.8-38.534-13.759-18.317-24.629-21.231-33.878C283.069,1211.649,277.468,1203.5,277.468,1203.5Z" transform="translate(-259.232 -1149.141)" fill="#979fc5"/>
      <path id="Path_4053" data-name="Path 4053" d="M472.255,1289.44s3.44,1.219,4.578,2.778c1.452,1.989,7.321,5.594,8.985,5.8s6.406,1.532,6.406,1.532l.244,7.943s-23.038-6.992-26.791-10.745c-1.3-1.3,6.081,1.742,6.153,1.148s-8.816-2.349-8.172-3.79,8.031,3.02,8.815,2.361-9.191-3.123-9-4.707,9.8,3.511,9.8,3.511.282-.782-2.289-2.4-5.09-2.974-4.408-3.548,7.158,4.373,8.2,3.5C474.774,1292.818,471.63,1290.288,472.255,1289.44Z" transform="translate(-357.403 -1193.29)" fill="#fc7575"/>
      <path id="Path_4054" data-name="Path 4054" d="M520.345,1308.34l-8.1-1.053-1.785,7.977,8.713,1.927Z" transform="translate(-381.588 -1202.564)" fill="#d1fedf"/>
      <path id="Path_4055" data-name="Path 4055" d="M560.325,1421.3,575.5,1525.465h-8.646l-11.143-55.352s-8.554-54.986-8.554-74.84Z" transform="translate(-400.478 -1247.851)" fill="url(#linear-gradient-2)"/>
      <path id="Path_4056" data-name="Path 4056" d="M575.49,1186.506l.561,8.782-20.811-2.365,5.767-5.958Z" transform="translate(-404.638 -1140.396)" fill="#375866"/>
      <path id="Path_4057" data-name="Path 4057" d="M540.89,1257.617c.053-29.793,4.617-59.427,11.126-63.2,0,0,7.568-.521,11.459-.651,5.807-.195,10.328,2.738,15.15,19.171,3.04,10.36,3.465,33.471,3.138,55.262-.144,9.661-1.04,19.341-1.247,26.182-16.4,0-23.481.7-39.4.7C540.113,1265.6,540.874,1266.474,540.89,1257.617Z" transform="translate(-397.102 -1144.13)" fill="#d1fedf"/>
      <path id="Path_4058" data-name="Path 4058" d="M545.134,1195.119s-8.806,3.94-11.5,30.411-6.406,80.515-6.406,80.515h12.265s1.328-77.207,1.328-82.5S545.134,1195.119,545.134,1195.119Z" transform="translate(-390.22 -1144.83)" fill="url(#linear-gradient-3)"/>
      <path id="Path_4059" data-name="Path 4059" d="M608.861,1272.383c.008-.008.016-.019.025-.027C608.664,1272.339,608.679,1272.351,608.861,1272.383Z" transform="translate(-432.166 -1184.58)" fill="#fc7575"/>
      <path id="Path_4060" data-name="Path 4060" d="M551.941,1362.371l31.094.762,2.572,16.444,1.005,69.966s12.773,41.051,15.8,57.427c0,0-10.189.775-9.7.775l-21.438-51.529-11.423-53.442L550.5,1382Z" transform="translate(-402.196 -1230.916)" fill="url(#linear-gradient-4)"/>
      <path id="Path_4061" data-name="Path 4061" d="M584.118,1363.133l.781,5H552.6l.424-5.757Z" transform="translate(-403.279 -1230.916)" fill="#3b1b36"/>
      <rect id="Rectangle_479" data-name="Rectangle 479" width="8.229" height="4.572" transform="translate(158.396 136.705) rotate(180)" fill="#a07fc0"/>
      <path id="Path_4062" data-name="Path 4062" d="M569.776,1445.625l13.683,52.68,17.68,46.868L581.2,1499.067Z" transform="translate(-412.12 -1273.768)" fill="#70497a"/>
      <path id="Path_4063" data-name="Path 4063" d="M576.817,1230.626c-.046.357,9.676-35.05,9.676-35.05a40.829,40.829,0,0,1,7.593,3.208c4.332,2.316,6.266,19.865,6.266,19.865s2.587,36.252,2.587,39.13c0,1.547,3.116,24.706,6,45.783l-35.49,2.718C573.979,1276.881,576.817,1230.626,576.817,1230.626Z" transform="translate(-414.008 -1145.065)" fill="url(#linear-gradient-5)"/>
      <path id="Path_4064" data-name="Path 4064" d="M577,1267.557s21.968-25.6,24.287-22.353c.209,2.945.783,11.061,1.329,19.055-5.545,14-23.493,36.875-27.514,41.909C575.7,1291.719,576.461,1277.221,577,1267.557Z" transform="translate(-414.862 -1170.463)" fill="#262943" opacity="0.57"/>
      <path id="Path_4065" data-name="Path 4065" d="M576.817,1267.8l-3.372,75.654S576.238,1270.008,576.817,1267.8Z" transform="translate(-414.008 -1182.24)" fill="#70497a"/>
      <g id="Group_1523" data-name="Group 1523" transform="translate(147.376 3.687)">
        <path id="Path_4066" data-name="Path 4066" d="M571.639,1142.685c.359-.229,4.828-11.346,4.828-11.346s2.982-8.347,1.056-9.761-6.5-6.313-10.513-6.4a15.233,15.233,0,0,0-7.061,1.341c-.36.229-2.959,4.616-2.959,4.616s1.21-1.478,1.833,4.006S571.639,1142.685,571.639,1142.685Z" transform="translate(-552.915 -1107.367)" fill="#381a3f"/>
        <path id="Path_4067" data-name="Path 4067" d="M566.325,1161.735c.477,1.421.271,11.558.647,14.11.372,2.52,11.875,6.425,12.1-2.74s-.679-19.946-.679-19.946Z" transform="translate(-557.72 -1126.92)" fill="#fc7575"/>
        <path id="Path_4068" data-name="Path 4068" d="M566.325,1161.735h0l4.006-2.847,8.063-5.729v.03c0,.038.009.11.017.212.027.334.078,1,.142,1.92v0c.013.186.026.383.04.589,0,.013,0,.027,0,.04.044.666.093,1.432.141,2.275,0,.048.005.094.008.142.011.2.023.4.034.612v.007c.006.107.012.217.018.327v.035c0,.041,0,.083.007.125,0,.015,0,.031,0,.047,0,.072.007.145.011.217-1.5,4.913-7.16,10.25-12.059,10.882-.011-.338-.029-.681-.053-1.025A57.619,57.619,0,0,0,566.325,1161.735Z" transform="translate(-557.72 -1126.92)" fill="#fd5e5a"/>
        <path id="Path_4069" data-name="Path 4069" d="M573.936,1130.76a17.678,17.678,0,0,1-1.961,15.438c-3.513,5.069-8.361,7.683-11.834,5.126s-4.467-18.6-1.957-22.728S571.69,1125.175,573.936,1130.76Z" transform="translate(-552.81 -1112.918)" fill="#fc7575"/>
        <path id="Path_4070" data-name="Path 4070" d="M569.714,1132.329s.781-5.246,2.794-6.525,2.921-2.058,3.285-3.911,7.08-3.093,5.984-6.139-6.355-4.472-9.029-9.769-5.559-8.23-11.792-6.3-7.1,5.732-7.1,5.732-2.75-.478-4.431,2.814-.475,5.16.607,6.7c0,0-.232-4.344,1.258-4.043s-.012,5.08-.012,5.08a39.365,39.365,0,0,0,4.623-4.663c2.384-2.832,1.8.482,1.092,4.071s4.585.208,6.936-2.389,5.714-.17,6.943,3.511S566.807,1125.964,569.714,1132.329Z" transform="translate(-548.593 -1099.089)" fill="#653870"/>
        <path id="Path_4071" data-name="Path 4071" d="M589.366,1145.025s2.2-3.753,3.341-2.121.2,6.5-2.223,6.552S589.366,1145.025,589.366,1145.025Z" transform="translate(-569.398 -1121.43)" fill="#fc7575"/>
        <path id="Path_4072" data-name="Path 4072" d="M591.784,1146.577s-.083-2.173,1.1-1.453-.009,4.213-1.1,4.143S591.784,1146.577,591.784,1146.577Z" transform="translate(-570.575 -1122.708)" fill="#fd5e5a"/>
        <path id="Path_4073" data-name="Path 4073" d="M565.527,1146.2a13.6,13.6,0,0,0-.881,3.1,8.1,8.1,0,0,0,.033,3.432c.268-.049.98-.154,1.922-.4-.607-.017-1.209,0-1.808.031l.2.149A41.722,41.722,0,0,1,565.527,1146.2Z" transform="translate(-556.778 -1123.339)" fill="#172866"/>
        <path id="Path_4074" data-name="Path 4074" d="M572.711,1146.27a1.089,1.089,0,0,0,.634,1.355c.478.1.97-.354,1.1-1.005a1.088,1.088,0,0,0-.634-1.354C573.331,1145.168,572.84,1145.618,572.711,1146.27Z" transform="translate(-560.991 -1122.85)" fill="#2f499f"/>
        <path id="Path_4075" data-name="Path 4075" d="M559.148,1144.343a1.088,1.088,0,0,0,.634,1.355c.478.1.97-.353,1.1-1a1.089,1.089,0,0,0-.635-1.355C559.768,1143.242,559.276,1143.692,559.148,1144.343Z" transform="translate(-554.01 -1121.858)" fill="#2f499f"/>
        <path id="Path_4076" data-name="Path 4076" d="M576.351,1141.645a4.681,4.681,0,0,0-2.7-2.115c-1.684-.341-1.176,1.077-.782,1.156S576.416,1141.313,576.351,1141.645Z" transform="translate(-560.888 -1119.877)" fill="#172866"/>
        <path id="Path_4077" data-name="Path 4077" d="M561.389,1137.9s-2,.591-2.373,1.508c0,0,2.112-.175,2.492-.67A.562.562,0,0,0,561.389,1137.9Z" transform="translate(-553.958 -1119.064)" fill="#172866"/>
        <path id="Path_4078" data-name="Path 4078" d="M569.145,1164.6s-5.15,1.936-7.943.075c0,0,.783,2.593,1.494,3.06C564.195,1168.723,567.879,1167.976,569.145,1164.6Z" transform="translate(-555.083 -1132.81)" fill="#fff"/>
      </g>
      <path id="Path_4079" data-name="Path 4079" d="M559.2,1187.451l-5.842,38.474-1.626-19.445,1.7-2.063v-11.007Z" transform="translate(-402.834 -1140.883)" fill="#284758"/>
      <path id="Path_4080" data-name="Path 4080" d="M586.438,1184.573l-5.858,8.752,2.822,5.368,8.686-10.419-3.555-2.763Z" transform="translate(-417.681 -1139.402)" fill="#e3feec"/>
      <path id="Path_4081" data-name="Path 4081" d="M564.9,1187.451l1.56,6.9L564,1198.274l-1.187-6.645Z" transform="translate(-408.536 -1140.883)" fill="#f4fff7"/>
      <path id="Path_4082" data-name="Path 4082" d="M580.394,1225.957l8.043-39.452,8.314,6.462-7.275,13.509.542,4.23Z" transform="translate(-417.585 -1140.396)" fill="#284758"/>
      <path id="Path_4083" data-name="Path 4083" d="M568.741,1201.659l1.971,1.6,3-1.141,1.621,3.084s-6.6.355-8.1-1.146Z" transform="translate(-410.813 -1148.196)" fill="#a4c1ad"/>
      <path id="Path_4084" data-name="Path 4084" d="M575.217,1202.257l-4.544-.325.139,3.982,3.623.168Z" transform="translate(-412.582 -1148.336)" fill="#6ca3c2"/>
      <path id="Path_4085" data-name="Path 4085" d="M567.167,1210.3l-3.623-.168-6.991,66.494,3.043,4.738,5.68-3.823Z" transform="translate(-405.314 -1152.559)" fill="#517a92"/>
      <path id="Path_4086" data-name="Path 4086" d="M570.394,1210.482l-1.555,67.545-6.016,3.519,5.155-3.984Z" transform="translate(-408.541 -1152.737)" fill="#3d5c6e"/>
      <path id="Path_4087" data-name="Path 4087" d="M579.471,1202.608l-1.046,3.821.521-3.821Z" transform="translate(-416.571 -1148.685)" fill="#3d5c6e"/>
      <path id="Path_4088" data-name="Path 4088" d="M566.526,1202.169c3.4,1.019,9.686,13.434,8.063,21.584s-13.69,37.861-17.3,41.471-37.389-2.455-37.389-2.455l1.253-10.255s21.922,0,22.44-1.245C546.04,1245.39,563.128,1201.151,566.526,1202.169Z" transform="translate(-386.447 -1148.449)" fill="url(#linear-gradient-6)"/>
      <path id="Path_4089" data-name="Path 4089" d="M566.526,1202.169c3.4,1.019,9.686,13.434,8.063,21.584s-13.69,37.861-17.3,41.471-37.389-2.455-37.389-2.455l1.253-10.255s21.922,0,22.44-1.245C546.04,1245.39,563.128,1201.151,566.526,1202.169Z" transform="translate(-386.447 -1148.449)" opacity="0.15" fill="url(#linear-gradient-6)" style="mix-blend-mode: screen;isolation: isolate"/>
      <g id="Group_1524" data-name="Group 1524" transform="translate(30.307 5.525)">
        <path id="Path_4090" data-name="Path 4090" d="M333.53,1118.165s5.252,6.9,6.04,11.585c.811,4.818,1.792,12.521,1.792,12.521h-2.138s-1.781,4.274-1.782,7.123-4.512,1.068-7.124,1.068c-2.239,0-6.594-2.038-9.281-7.67a14.9,14.9,0,0,1-1.4-2.782C317.379,1131.817,313.226,1117.211,333.53,1118.165Z" transform="translate(-312.673 -1110.722)" fill="#fc7575"/>
        <path id="Path_4091" data-name="Path 4091" d="M315.138,1172.645a6.609,6.609,0,0,0,4.584,5.526c2.6.817,5.06,1.442,6.417,1.769a.723.723,0,0,0,.893-.729,78.328,78.328,0,0,1,.655-8.64c.21-1.883.415-3.593.525-4.629-.55-1.379-4.724-11.872-4.456-11.2v-.008l-.859-2.149S315.005,1171.527,315.138,1172.645Z" transform="translate(-311.361 -1128.46)" fill="#fc7575"/>
        <path id="Path_4092" data-name="Path 4092" d="M335.339,1105.333c.243.408,4.365,8.793-2.747,11.995s-8.877-1.411-10.778,1.439,1.646,7.462.1,10.074l-2.368.453s-.481-1.4-1.432-1.4-1.219,7.193-2.748,7.193-4.5-6.126-5.92-8.976-4.391-12.468,1.072-14.96,7.836-.593,7.837-2.967,2.375.12,2.375.12a4.179,4.179,0,0,0,.476-3.8c-.831-2.019,5.819-2.73,7.361,1.307S332.727,1100.939,335.339,1105.333Z" transform="translate(-307.357 -1102.876)" fill="#210075"/>
        <path id="Path_4093" data-name="Path 4093" d="M329.22,1146.194s.115,4.687-1.015,4.687-3.6-2.655-3.185-5.478S328.709,1142.918,329.22,1146.194Z" transform="translate(-316.424 -1123.781)" fill="#fc7575"/>
        <path id="Path_4094" data-name="Path 4094" d="M329.848,1146.971s.564,1.864-.283,2.711-2.48-1.187-1.579-2.711S329.67,1145.9,329.848,1146.971Z" transform="translate(-317.839 -1125.067)" fill="#fd5e5a"/>
        <path id="Path_4095" data-name="Path 4095" d="M353.1,1145.336l.181,1.132a4.2,4.2,0,0,0-3.075.851c-1.089,1.088-1.24,1.212-1.24,1.212S349.541,1145.969,353.1,1145.336Z" transform="translate(-328.771 -1124.731)" fill="#210075"/>
        <path id="Path_4096" data-name="Path 4096" d="M353.074,1151.432a.887.887,0,1,0,.874-1.038A.966.966,0,0,0,353.074,1151.432Z" transform="translate(-330.888 -1127.334)" fill="#210075"/>
        <path id="Path_4097" data-name="Path 4097" d="M365.233,1125.557a2.663,2.663,0,0,1-.581,1.389c-1.248,1.62-3.672,1.849-5.294,2.056a10.911,10.911,0,0,0,4.2-.087,4.592,4.592,0,0,0,3.469-3.116Z" transform="translate(-334.122 -1114.55)" fill="#210075"/>
        <path id="Path_4098" data-name="Path 4098" d="M330.776,1169.41a43.338,43.338,0,0,0,4.769,3.355c.279-2.562.549-4.627.549-4.627s-1.312,1.131-4.439-11.286a.529.529,0,0,0-.017.076v.008C331.461,1158,329.748,1168.391,330.776,1169.41Z" transform="translate(-319.243 -1130.659)" fill="#fd5e5a"/>
        <path id="Path_4099" data-name="Path 4099" d="M345.5,1167.143a19.373,19.373,0,0,1,.377,2.892c0,1.054-2.636,2.221-5.008,1.543s-5.666-2.243-6.475-3.052-1.456-11.736-1.456-11.736l2.146-.411s1.061,7.123,1.946,8.007S345.5,1167.143,345.5,1167.143Z" transform="translate(-320.523 -1130.415)" fill="#210075"/>
        <path id="Path_4100" data-name="Path 4100" d="M350.353,1156.694c.169.773-.715,1.624-1.977,1.9s-2.421-.126-2.59-.9.715-1.624,1.977-1.9S350.184,1155.92,350.353,1156.694Z" transform="translate(-327.126 -1130.069)" fill="#fd5e5a"/>
        <path id="Path_4101" data-name="Path 4101" d="M349.945,1168.311s1.7,1.738,2.573,1.909,1.314.116.958.828-2.026.331-2.026-.341S349.945,1168.311,349.945,1168.311Z" transform="translate(-329.277 -1136.556)" fill="#210075"/>
      </g>
      <path id="Path_4102" data-name="Path 4102" d="M300.552,1197.489l-1.194.1,4.58,12.681h3.077l-1.85,3.219,25.4,32.476-18.775-39.385Z" transform="translate(-272.933 -1146.05)" fill="#5e6589" opacity="0.75"/>
      <path id="Path_4103" data-name="Path 4103" d="M330.417,1240.639l-22.042-33.454,2.345-5-4.924.313-6.722-10.446,8.349-4.9Z" transform="translate(-272.786 -1140.727)" fill="#979fc5"/>
      <path id="Path_4104" data-name="Path 4104" d="M411.433,1353.209a.864.864,0,1,1-.864-.864A.864.864,0,0,1,411.433,1353.209Z" transform="translate(-329.73 -1225.755)" fill="#717794"/>
      <path id="Path_4105" data-name="Path 4105" d="M403.849,1351.146a.864.864,0,1,1-.864-.864A.864.864,0,0,1,403.849,1351.146Z" transform="translate(-325.827 -1224.694)" fill="#717794"/>
      <path id="Path_4106" data-name="Path 4106" d="M396.137,1349.022a.864.864,0,1,1-.864-.864A.864.864,0,0,1,396.137,1349.022Z" transform="translate(-321.857 -1223.6)" fill="#717794"/>
      <g id="Group_1525" data-name="Group 1525" transform="translate(97.75 135.234)">
        <path id="Path_4107" data-name="Path 4107" d="M446.8,1375.884a.471.471,0,0,1-.047-.94c.141-.014,14.18-1.457,24.294-4.763a.471.471,0,0,1,.293.9c-10.212,3.339-24.35,4.791-24.492,4.805Z" transform="translate(-446.332 -1370.158)" fill="#58307d"/>
      </g>
      <g id="Group_1526" data-name="Group 1526" transform="translate(78.87 103.659)">
        <path id="Path_4108" data-name="Path 4108" d="M407.9,1307.769a.471.471,0,0,1-.167-.912c.427-.161,10.529-3.9,18.381.02a.471.471,0,1,1-.421.843c-7.487-3.734-17.527-.019-17.628.019A.472.472,0,0,1,407.9,1307.769Z" transform="translate(-407.427 -1305.094)" fill="#58307d"/>
      </g>
      <g id="Group_1527" data-name="Group 1527" transform="translate(15.972 0)">
        <path id="Path_4109" data-name="Path 4109" d="M279.335,1117.919a.471.471,0,0,1-.449-.329,19.8,19.8,0,0,1,2.857-18.343c3.75-5.116,9-7.755,10.41-7.755a.471.471,0,1,1,0,.942c-.99,0-5.933,2.3-9.65,7.369a18.886,18.886,0,0,0-2.719,17.5.471.471,0,0,1-.308.591A.461.461,0,0,1,279.335,1117.919Z" transform="translate(-277.818 -1091.492)" fill="#58307d"/>
      </g>
    </g>
  </g>
</svg>
